/* XPM */
static char *New_Project__2_1675875523[] = {
/* columns rows colors chars-per-pixel */
"60 60 234 2 ",
"   c None",
".  c #7A2B14",
"X  c #7B3B27",
"o  c #703C34",
"O  c #7B412C",
"+  c #76463E",
"@  c #7F6127",
"#  c #56535F",
"$  c #52474F",
"%  c #6A5352",
"&  c #796967",
"*  c #736C75",
"=  c #8B2509",
"-  c #932E0C",
";  c #9C2A02",
":  c #922D11",
">  c #9A3612",
",  c #8E3013",
"<  c #A2350F",
"1  c #A23614",
"2  c #A43A14",
"3  c #A93D1B",
"4  c #A83C16",
"5  c #AC3707",
"6  c #94173A",
"7  c #B11B2C",
"8  c #863B27",
"9  c #953B25",
"0  c #B82D35",
"q  c #C33D36",
"w  c #CC3439",
"e  c #E73733",
"r  c #E53927",
"t  c #AC411C",
"y  c #A74316",
"u  c #B64918",
"i  c #BC521E",
"p  c #B7490D",
"a  c #AE641B",
"s  c #9A543F",
"d  c #B75522",
"f  c #A95428",
"g  c #B6773B",
"h  c #BA6D30",
"j  c #CA5C18",
"k  c #D45A16",
"l  c #CC421A",
"z  c #CB6514",
"x  c #CA661B",
"c  c #CB6B1A",
"v  c #C76717",
"b  c #D6681A",
"n  c #CA721D",
"m  c #D4741E",
"M  c #D77B1B",
"N  c #CA5B23",
"B  c #D05635",
"V  c #EF482F",
"C  c #CB6524",
"Z  c #CC6628",
"A  c #D56A2B",
"S  c #D86924",
"D  c #CD7527",
"F  c #DC7623",
"G  c #D87A28",
"H  c #C66735",
"J  c #D86732",
"K  c #D77A35",
"L  c #E96424",
"P  c #E27B2A",
"I  c #E37826",
"U  c #E17638",
"Y  c #F27433",
"T  c #980A49",
"R  c #940F4B",
"E  c #AA184F",
"W  c #AF1549",
"Q  c #9B2551",
"!  c #B92248",
"~  c #A92242",
"^  c #C51A4D",
"/  c #CD2B46",
"(  c #8D5649",
")  c #905A44",
"_  c #A55455",
"`  c #87635F",
"'  c #9E624D",
"]  c #B47B46",
"[  c #AB6E53",
"{  c #8B7469",
"}  c #82787E",
"|  c #97796C",
" . c #AA7769",
".. c #DA5857",
"X. c #C87A46",
"o. c #D27B43",
"O. c #D46948",
"+. c #CB486D",
"@. c #DF696C",
"#. c #EC5C4D",
"$. c #AA8823",
"%. c #DB891E",
"&. c #D5882D",
"*. c #CF833C",
"=. c #D98736",
"-. c #DB9C38",
";. c #CD842C",
":. c #EB8C2C",
">. c #E48429",
",. c #F08F27",
"<. c #E48935",
"1. c #EC953A",
"2. c #E79838",
"3. c #F59B3C",
"4. c #F5963D",
"5. c #EF932F",
"6. c #E8A63B",
"7. c #F5AB37",
"8. c #EBB438",
"9. c #F5B837",
"0. c #EEAE2E",
"q. c #F7C53F",
"w. c #BB815A",
"e. c #B7866B",
"r. c #A68674",
"t. c #DB8B49",
"y. c #D99645",
"u. c #D88354",
"i. c #CA9057",
"p. c #E78449",
"a. c #E89844",
"s. c #F69B46",
"d. c #E69659",
"f. c #F39352",
"g. c #E88F5E",
"h. c #DFB054",
"j. c #E9A949",
"k. c #F5A646",
"l. c #E9B547",
"z. c #F6BC44",
"x. c #F5BA4C",
"c. c #F7B748",
"v. c #E7A758",
"b. c #F7A956",
"n. c #EFB556",
"m. c #F7B95C",
"M. c #C59E6E",
"N. c #D99D67",
"B. c #C79070",
"V. c #F29074",
"C. c #DAA569",
"Z. c #D6AC74",
"A. c #E8A867",
"S. c #F3BC63",
"D. c #F5B666",
"F. c #ECB575",
"G. c #F3BC77",
"H. c #E5BB6C",
"J. c #F4C24C",
"K. c #F5CB4A",
"L. c #F7C647",
"P. c #F6CB55",
"I. c #FDCC55",
"U. c #F6C556",
"Y. c #F9D355",
"T. c #EECB5B",
"R. c #D8C37F",
"E. c #E8C866",
"W. c #F8C968",
"Q. c #F8D768",
"!. c #E9C878",
"~. c #F9CA77",
"^. c #FDDB73",
"/. c #FED578",
"(. c #EED273",
"). c #FDE579",
"_. c #FBE165",
"`. c #7F7788",
"'. c #827C84",
"]. c #599184",
"[. c #709289",
"{. c #74A999",
"}. c #8A8589",
"|. c #988789",
" X c #988E93",
".X c #98909A",
"XX c #8E8896",
"oX c #A5999A",
"OX c #B99A95",
"+X c #AC9082",
"@X c #B7A599",
"#X c #BCAC8B",
"$X c #A89BA7",
"%X c #ABA1AA",
"&X c #B5A9AD",
"*X c #AFAAB3",
"=X c #B6A9B5",
"-X c #B8B0AF",
";X c #C59186",
":X c #E3818E",
">X c #C6A897",
",X c #D1B890",
"<X c #EAA88C",
"1X c #E29FAA",
"2X c #C4ACA4",
"3X c #C0B4B4",
"4X c #DAA9A2",
"5X c #88C2B3",
"6X c #D6C399",
"7X c #D6C288",
"8X c #FBCD8A",
"9X c #F8D78A",
"0X c #F9D797",
"qX c #EECB91",
"wX c #FCE688",
"eX c #FAE696",
"rX c #C8C4B9",
"tX c #D6C7AD",
"yX c #EDC9A9",
"uX c #F7DDA6",
"iX c #EBCDB2",
"pX c #F9E7A5",
"aX c #FFF6AD",
"sX c #FBECB3",
"dX c #F4E7B5",
"fX c #FBF2B8",
"gX c #B7D5D2",
"hX c #D2CAC4",
"jX c #F2D5C3",
"kX c #FAF4C4",
"lX c #FEF9C9",
"zX c #FCFAD7",
"xX c #FEFAE8",
"cX c #FDFDF0",
/* pixels */
"                                                                                                                        ",
"                                                                                                                        ",
"                                                                                                                        ",
"                                                                                                                        ",
"                                                                                                                        ",
"                                                                                                                        ",
"                                                                                                                        ",
"                                                                                                                        ",
"                                                                                                                        ",
"                                                                                                                        ",
"                                                                                                                        ",
"                                                                                                  0                     ",
"                                                                                                  r B w                 ",
"                                                                          7                       V U V                 ",
"                                                                          q e V                   g.aX#.                ",
"                                                                            8Xp.<X              7.I.lXf.L               ",
"                                                                          y.pX9Xs.              v.lXzXeXY               ",
"                                                                          ) zXfX~.              !.eXW.g.                ",
"                                                      $ $                   wXU.u.      / <X    n.n.<.J                 ",
"                                          &X%X=X=X=X=X=X*X*X%X$X%X*X3X      b k                   a.N                   ",
"                                          }.% 8 O X O O 8 X 8 8 9 9  .      H l       jX          U p                   ",
"                                          $ = 1 > 1 4 1 2 1 > 2 2 4 OX  '.    {.      yX          H >                   ",
"                                          o - - t t 3 t 3 3 3 3 2 4   : |.          uX;X          oX                    ",
"                                          X : g.- > : > > 1 2 4 2 4   = r.  /.8X<X,X<X            gX                    ",
"                                        $X, < p.4 o.1 > < 4 y u u [   =           W.C             gX                    ",
"                                        }.> y O.d.C 1 i u i A i N B.  =       [.v.H Z             5X                    ",
"                                        % 3 t d.b.o.p.A U d i p 5             tXG.b               {.                    ",
"                                      #Xe.F.v.y.b.K f.k B N N N Z   = '       dXu.K               [.                    ",
"                    1.G           Z.fXlXx.~.3.2.1.>.F k H c L S f             kXD                 ].                    ",
"                  8X3.X.  XX}.& zXW.S.x.a.m.1.a.=.=.<.&.F. .  )             uXG.y.                ].                    ",
"                  9X1.j $X$X.X2XM.w.g K k.4.k.&.m.x b.m c K $ *           qXuX-.                                        ",
"                  G.4.e.* * # i - . |.} '.}.|.r. .g *.] | # %       F.qXpXcXdXfXlX7X                                    ",
"                  S.3.X.'.'.% j S A OX&X.X. 9 ( $X-X-X X` - ; ' C.D.fX9XdXzX(.n.-.~.qXZ.        5X                      ",
"                  m.3.C oXt y A S x |..X|.H b A >XhX-XrX' ; =.8X0Xm.j.~./.E.Y.z.2.k.j.=.M.                              ",
"          6.>.%.:.k.I % 2XI P F I t.oX}.& j A F @X|.rX6XuXsXT.S.kX^.Y.L.U.y.z.x.M v G S.<.8X                            ",
"          7XU.,X3.M v.@Xe.>.P P I >.] ( ( P P F Z.@X6XsXfXpX!.!.~.S.W.I.l.2.c.&./.D D a.F W.sX                          ",
"            U.j.7.A F.tX4Xo.Z I F F b S P I %.&.G y.lXcXzXfXQ.S.l.U.x.J.x.z.~.2.7.n z v a.D.G 8X                        ",
"              S.    6XjX@X| L 4.,.,.:.:.>.b b a.Q.).fXxXkXwXQ.n.Y.2.8.j.W.c.l.7.k.b.k.a.x s.x I b dX                    ",
"              Y.;.  >Xr.,X{ J L L k I ,.5.5./.n.E.pXpXwX)._.Y.l.L.x.J.c.k./.z.c.<.D x m b.n x z G y.                    ",
"              $.    ` >X2X| 6XyX<Xo.A L G l./.l.wXaXL.L.Y.K.K.l.-.j.x.8./.J.J.7.m D.v v z v k.a.D.a.<.G.A.M.            ",
"        ).!.  H.                iXuXlXpX).z.9.^.q.q.q.K.L.K.L.Y.L.j.W.2.U.wXE.pXA.U z c z x v c v c D D b s.8X          ",
"              T.                  E.^.(.^.^.0.9.q.J.l.n.).J.L.W.9.9.z.L.Q.xX1XE q @.A c &.z z m W.=.a.b.v.    ~.i.      ",
"                                              W.Q.J.6.J.c.x.l.-.x./.b.W.qX_ :X^ @.! ..b.z c x z d   t.f D.]             ",
"                                                            6./.W.<.k.B ^ ..#.:Xe e / c z h N.    A.  $.    N.v.        ",
"                                                                m.1.D q w ....../ w 6 t.y.          B.N.                ",
"                                                                    v.+.T T 7 W W T 6 a.a h                             ",
"                                                                      ~ E E +.R T T                                     ",
"                                                                                                                        ",
"                                                                                                                        ",
"                                                                                                                        ",
"                                                                                                                        ",
"                                                                                                                        ",
"                                                                                                                        ",
"                                                                                                                        ",
"                                                                                                                        ",
"                                                                                                                        ",
"                                                                                                                        ",
"                                                                                                                        ",
"                                                                                                                        ",
"                                                                                                                        "
};
