/* XPM */
static char *e1675865035[] = {
/* columns rows colors chars-per-pixel */
"60 60 233 2 ",
"   c None",
".  c #2E1F2D",
"X  c #2D2124",
"o  c #2D232C",
"O  c #32232B",
"+  c #342528",
"@  c #3D312E",
"#  c #3C2D34",
"$  c #392934",
"%  c #551D0B",
"&  c #51190E",
"*  c #5C220B",
"=  c #4F2314",
"-  c #562311",
";  c #5B2313",
":  c #532A1C",
">  c #572A1A",
",  c #63230C",
"<  c #6D2A0D",
"1  c #742C0E",
"2  c #7F2807",
"3  c #6D2910",
"4  c #652814",
"5  c #732B11",
"6  c #7B2D12",
"7  c #7A310E",
"8  c #452A2B",
"9  c #552D21",
"0  c #55342D",
"q  c #593429",
"w  c #443637",
"e  c #5B3A33",
"r  c #573837",
"t  c #412C30",
"y  c #623528",
"u  c #613B37",
"i  c #6E1202",
"p  c #5E4037",
"a  c #61433C",
"s  c #69483A",
"d  c #7A5438",
"f  c #493A44",
"g  c #5C3D43",
"h  c #5B454A",
"j  c #5D4C57",
"k  c #5D5254",
"l  c #5D515A",
"z  c #56525B",
"x  c #554B4B",
"c  c #634A4B",
"v  c #664946",
"b  c #715A48",
"n  c #634E55",
"m  c #674D5A",
"M  c #635155",
"N  c #63525B",
"B  c #69545E",
"V  c #69565B",
"C  c #7F5855",
"Z  c #6D5B64",
"A  c #685864",
"S  c #715E67",
"D  c #7B656E",
"F  c #786A6F",
"G  c #75646B",
"H  c #7E6B73",
"J  c #7B6773",
"K  c #7C7175",
"L  c #6F656D",
"P  c #7C6452",
"I  c #842F0A",
"U  c #84320C",
"Y  c #8A330E",
"T  c #943A0C",
"R  c #832E12",
"E  c #8C2F14",
"W  c #843113",
"Q  c #8B3313",
"!  c #8A3619",
"~  c #923613",
"^  c #933B13",
"/  c #933B1B",
"(  c #9B3E1A",
")  c #983619",
"_  c #912F19",
"`  c #993E22",
"'  c #A33F22",
"]  c #9B451A",
"[  c #9E4B17",
"{  c #A34D1D",
"}  c #A44719",
"|  c #A5501B",
" . c #A9541D",
".. c #B3571F",
"X. c #9D4323",
"o. c #8F5732",
"O. c #92512C",
"+. c #A44225",
"@. c #A24A23",
"#. c #AD4B2B",
"$. c #A84928",
"%. c #AA5326",
"&. c #AB5529",
"*. c #B65B28",
"=. c #B45C33",
"-. c #B65A35",
";. c #AD5132",
":. c #AE6229",
">. c #B8652E",
",. c #B66234",
"<. c #BC6335",
"1. c #BC6C34",
"2. c #BC653C",
"3. c #BD6A3A",
"4. c #B16F35",
"5. c #BD7039",
"6. c #9E6B37",
"7. c #C55F37",
"8. c #C26535",
"9. c #C26A35",
"0. c #C3653A",
"q. c #C36B3B",
"w. c #C96B39",
"e. c #C5733C",
"r. c #CB753D",
"t. c #CB7B3E",
"y. c #C37538",
"u. c #CA6E36",
"i. c #855E45",
"p. c #856759",
"a. c #947558",
"s. c #926B4D",
"d. c #B77246",
"f. c #83676E",
"g. c #826B76",
"h. c #826C79",
"j. c #817177",
"k. c #87767B",
"l. c #947C7C",
"z. c #9B7A61",
"x. c #C56C41",
"c. c #CB7642",
"v. c #CD7C43",
"b. c #C77447",
"n. c #D17D44",
"m. c #D27947",
"M. c #CF7951",
"N. c #CB853E",
"B. c #D8803B",
"V. c #CE8344",
"C. c #CF8945",
"Z. c #CD844A",
"A. c #CC8849",
"S. c #D18445",
"D. c #D28A46",
"F. c #D38449",
"G. c #D48B4A",
"H. c #D98E4C",
"J. c #DA8946",
"K. c #D5924C",
"L. c #DA934D",
"P. c #DB994D",
"I. c #D7964A",
"U. c #DA8953",
"Y. c #CB9458",
"T. c #D59453",
"R. c #DA9452",
"E. c #DC9B53",
"W. c #DD9C5A",
"Q. c #D59956",
"!. c #E39A54",
"~. c #E29C59",
"^. c #E39655",
"/. c #E2974B",
"(. c #DDA154",
"). c #DDA25B",
"_. c #D7A05B",
"`. c #D4A54B",
"'. c #E3A45C",
"]. c #E5A258",
"[. c #E2A24B",
"{. c #D49F61",
"}. c #DAA567",
"|. c #D6AA77",
" X c #E7AA65",
".X c #F0AE6E",
"XX c #8B7C82",
"oX c #967C89",
"OX c #94898C",
"+X c #968587",
"@X c #9C8A92",
"#X c #9E9697",
"$X c #928A8A",
"%X c #A28D8C",
"&X c #A29296",
"*X c #A99B9D",
"=X c #A5999A",
"-X c #A28F91",
";X c #AB9EA2",
":X c #B19EA6",
">X c #ACA4A3",
",X c #AEA8A8",
"<X c #B2A5A6",
"1X c #B2A9A7",
"2X c #B5A7AA",
"3X c #B4ACAC",
"4X c #BAACAD",
"5X c #B8B1AF",
"6X c #BCACB1",
"7X c #B7AAB0",
"8X c #BCB4B3",
"9X c #BEB9B9",
"0X c #B8B3B2",
"qX c #B5A69A",
"wX c #C3BBBB",
"eX c #C1B7B6",
"rX c #D5AA80",
"tX c #C8C0BD",
"yX c #CCBEC1",
"uX c #CCC4C4",
"iX c #CDC7C6",
"pX c #D3CDCC",
"aX c #D0C7C7",
"sX c #D5D0CE",
"dX c #D7D0D0",
"fX c #DBD5D5",
"gX c #DDD7D8",
"hX c #D5CFD0",
"jX c #E5DDDE",
"kX c #E4E0DF",
"lX c #E9DEE0",
"zX c #E6E1E0",
"xX c #E9E2E2",
/* pixels */
"                                                                                                                        ",
"                              0X0X0X,X                                  0X1X,X3X>X                                      ",
"                          5XfXkXjXxXuX>X                      5X0XuXpXjXxXjXfX4X1X<X>X                                  ",
"                        ,XxXkXzXgX4X<X$X  0XeX3XpXjXjXxXxXxXxXzXzXzXzXxXjXzXlXpX8X3X<X                                  ",
"                        3XeXwX5X3X<X#X#X5XjXjXuXjXjXjXlXzXzXzXzXlXxXxXzXzXjXjXeX6X3X<X                                  ",
"                9X      5X8X1X@X=X4X9X3X*X>X3X>X&X*X*X>X2X6XeXeXwXyXyXyXwX8X4X<X1X    >X>X3X,X=X                        ",
"                        aX    uX  fXfXgXfXdXdXdXpXyX&X6X<X&X+XXX&X:X2X2X<X<X3X3X8XuXpXdXfXgXuX  3X                      ",
"                          fXfXjXgXfXfXfXfXfXfXfXfXaX8XfXfXfXfXfXdXdXjXfXfXdX    fXfXfXfXfXfXfX3X  pX                    ",
"                  fX                      pXpXpX    9X  fXfXfXfXfXfXfXfXfXdX  dXpX  dXfXfXfX                            ",
"                  fX                                    fXdXfXfXfX  fXfXsX                      wX  0X                  ",
"                tXfXfX    *Xg.J G S Z F h.+X@XoX        <X                                      fXdXuX                  ",
"                fXfXfX    h.D l l M M M M V Z S D g.g.H h.g.g.h.H j.h.g.h.g.g.h.H h.g.g.k.      fXfXsX                  ",
"                fXfXfX    H A u - * , % % = = : 0 e e a v c c c c c c c c c c a a n A g.h.OX    fXfXdX5X                ",
"              0XfXfXfX    H m 9 5 ) _ ~ E R 6 5 3 3 4 ; % - * - - - - - - - - * , 0 n G h.k.  sXgXfXsX5X                ",
"              3XfXfXfX    h.N ; ! 3.1.y.<.Y M.2.x.-.&.&.` X.$.$.{ @.X._ &.&.#.%.] < a A g.K   fXgXgX  wX                ",
"                sXfXfX    g.k ; / ^.R.!.<.Q 0.<.2.-.,.,.@.=.=.-.<.<.,.Q 9.2.,.2.;.1 a V g.k.  dXgXgX  uX                ",
"                          g.n , %.E.P.L.e.Y v.G.R.^.H.1.X.1.!.!.I.E.>.T ~.E.J.&.=.1 u V g.j.  fXfXfX                    ",
"                  1X$XOX+XD n 3 *.P.P.J.e.^ .X/.G./.P.y.@.b.L.R.I.'.1.Y ^.P.E.>.2.7 u V g.j.  fXfXfX                    ",
"                pXtX      S c 5 <.K.R.S.c.{  XL.J.L.L.v.@.c.N.L.(.'.D.U ~.H.^.1.x.7 e V g.H     fXfX                    ",
"                fXfXuX    A k 6 9.J.P.D.m.%.]./.S.H.H.n.@.e.N.E.(. XK.U ^.H.H.,.3.U 9 N g.g.    fX                      ",
"                fXfXsX  &XB k W r.G.^.v.G.| !.T.V.R.P.A.@.b.L.'.).).].Y ~.G.D.3.3.E > V j.g.>X      fXpX                ",
"              pXfXfXpX  @XA j Q t.D.H.V.n.| P.K.E.'.W.F.{ 1.R.'.].[.'.U !.G.S.3.,.R : N g.H     fXfXfXfX4X              ",
"              pXfXfXpX  oXm v Q t.L.E.G.J.O.H.J.I.(.'.S.} 9.L.I.(.`.'.I E.~.K.x.,.R : N g.g.    fXfXfXfX0X              ",
"              sXfXfXpX  k.z h c c J J a d.%.~.R.P.(.|.z.r # a.}.!.!.].I R.'.'.2.=.R > M g.g.    fXfXjXfX9X              ",
"              pXfXfX    H n g c M k z f y  .[.E.E._.d @ O o # v _.(.(.Y E.(.'.q.,.I > n g.g.    dXfXfXfXuX              ",
"            5XiXgXfXpX  g.m e ` b.d.6.Y.H.| !.).P.a.. $ $ + @ o s._.E.~ E.~.(.n.2.U : N g.g.    fXfXfXfXhX              ",
"            9XfXfXfX    g.l r / e.(.P.R.G.{ P.~. Xn . $ $ O @ X r |.P.~ E.W.R.F.d.I : m j.g.    fXfXfXfXdX3X            ",
"            8XfXgXfX    H M 0 ( r.).T.W.K.| R.W.p.x . @ O o # o w h }.^ ~.E.T.H.-.I : M h.g.    fXfXfXiXfX1X            ",
"            9XfXgXfX    H m r / v.(.I.E.P.{ R.Y.h f o @ $ O # o # x |.T ~.R.R.R.d.I : n g.g.    fXfXfXeXfX3X            ",
"            >XfXgXfX    H j 0 / V.W.K.K.W.[  X_.w h . # $ O # O f # P ^ !.E.T.C.-.I : m g.g.:X  dXfXfXeXdX3X            ",
"              uXfXfX    H j 0 ^ F.E.K.K.G.[ }.}.+ h + t + + # . p o h T ~.W.P.H.3.6 : N h.h.*X    fXtX  pX              ",
"                wX      g.n 0 Q Z.Q.R.P.K.|  XY.c f o # $ O $ X w w s ] ~.P.P.R.e.6 : l j.h.OX                          ",
"            9XfX      k.g.N e Q Z.P.E.C.E. ..XK.a.p.p.p.p.u b b b P |.[ W.P.K.E.e.6 9 N g.g.XX                          ",
"            9XgXpX      H k e Q v.E.H.G.Q. ..XK.K.Y.(.I.1.%.T.W.~.I.D.} W.P.A.E.q.6 9 l g.g.K k.$X                      ",
"            eXfXfXfX    H k r Y e.T.L.R.C. ..XP.D.R.T.G.0.0.K.I.L.N.K. .W.G.G.K.v.1 9 N g.h.j.    pXsXsX  iX            ",
"            9XfXgXfX    H k g Y e.K.S.S.D.*. XD.G.K.T.C.1.9.D.D.D.D.K.:.W.G.R.C.v.1 0 B g.h.K     fXfXfX  fX            ",
"            9XgXgXfX    H k h I ,.K.G.P.C.*..XG.H.A.G.D.y.q.K.C.K.P.G.>.E.D.C.P.c.< e N g.g.F     fXfXfX  gX            ",
"            eXfXfXfX    H k c W =.G.A.G.D.*. XH.G.D.A.G.e.e.G.C.R.L.C.1.T.D.G.C.e.< e M j.g.g.    fXfXfX  gX            ",
"            eXgXgXfX    k.n n 6 $.A.S.C.I.*. XG.G.V.A.F.e.r.D.A.H.N.G.5.K.D.K.K.1.3 a M h.g.F     fXfXfX  fX            ",
"            eXgXgXfX    XXN m 5 ] V.G.D.K...}.G.H.Z.S.G.v.v.C.G.F.G.G.r.A.S.H.H.3., a V g.h.F     fXfXfXwXgX            ",
"            9XfXfXfX    &XS n 4 ) M.U.J.J.%.Y.Z.F.Z.F.H.v.v.F.G.V.H.S.e.F.G.G.H.=.% h B g.g.F     fXfXfXfXfX            ",
"            9XgXfXfX      D l , T t.J.G.D.%.Z.F.F.F.F.F.t.v.V.F.A.G.J.v.F.F.G.H.&.* n B g.g.F     fXfXfXfXfX            ",
"              tXfXfX  OX@XD j ; _ M.F.G.J.*.4.F.V.F.S.J.y.S.S.S.G.t.G.F.F.V.G.J.X.% n B g.g.F     fXfXfXfXfX            ",
"                          g.l & 5 o.d i.o.>.:.M.S.S.S.F.y.S.n.D.F.S.F.v.F.S.G.G./ % n B g.g.F     dXsXtXfXsX            ",
"            wXgXaXaX      g.n 8 c A Z L A o.&.S.v.v.S.F.1.n.V.S.J.S.D.n.S.S.S.v./ - M V g.g.H           aX3X            ",
"            9XdXjXjX      h.A 8 : u u e 9 5.X.e.v.S.S.F.>.S.t.S.v.S.v.v.v.n.S.<.Q - m Z g.g.H       fXfXfXfX            ",
"            4X  dXfX      g.Z q 3 $.0.d.d.8.( v.n.n.S.n.%.v.n.n.t.S.t.c.n.n.F.<.Q = n S g.g.K     fXgXfXfXfX            ",
"            0X  fXfX      f.D g ; ' 0.q.c.x./ F.n.n.S.n.{ v.v.v.r.r.n.>.q.e.w.-.W : n G g.g.XX  fXfXfXfXfXfX            ",
"            4X  fXfX      g.g.c ; ) 7.w.0.8.~ J.m.n.t.n.} c.n.r.v.e.m.=.<.9.w.-.E 0 n G g.g.OX  fXfXfXfXfXfX4X          ",
"            >X  iXfXpX    f.g.c ; ! &.8.0.-./ U.m.r.t.n.] m.t.c.e.v.c.{ <.9.w.;.Q 0 l f.g.g.:X  fXfXfXfXpX  0X          ",
"                pXfXpX    g.g.n 9 ! +.0.0.-.^ U.r.m.m.r.( v.c.c.r.m.q.] 8.8.0.%.I g j g.g.g.    fXfXfXfXpX  0X          ",
"              0X  fXfX    +XH N h 6 ( } #.' ( d.7.8.8.0./ c.q.x.u.9.8.T c.7.8.X.5 j l h.g.g.    fXfXfXfXpX  uX          ",
"              9X  fXfX    -Xg.S c 5 ) +.+.+.' ;.-.0.0.0./ b.9.-.7.w.-.2 m.0.-.( 1 c n h.g.g.*X  fXfXfXfXpX  aX          ",
"              >X            g.D N 4 W X.' ' +./ ' ' +.' ) $.$.#. .#.$.i -.' ` ! , m N @X<X<X    fXfXfXfXaX  pX          ",
"              4X            k.h.V q 4 > , , 4 & < < 3 5 , * 5 5 < < 5 & 4 4 4 u s A XXfXfXfXwX1XdXfXfXfXwX  wX          ",
"                              H G         %X%X%X%X+XoXl.l.l.l.l.l.oX+X&X*X:X2X6X6X7XuXiXuXyXeXeXtXdXfXsXeX              ",
"                                                                eX4X4X2X4X4X2X7X6X@X2X<X4X4XsX8X                        ",
"                                                                                  $X>X<X1X1X<X1X=X    3XK #X            ",
"                                                                                    1X<X1X=X*X              qX          ",
"                                                                                                                        "
};
