/* XPM */
static char *New_Project__3_1676042889[] = {
/* columns rows colors chars-per-pixel */
"60 60 158 2 ",
"   c None",
".  c #73432C",
"X  c #774734",
"o  c #594247",
"O  c #575151",
"+  c #5A5359",
"@  c #624C4C",
"#  c #6B4944",
"$  c #6F5145",
"%  c #6F524C",
"&  c #7B5748",
"*  c #65535C",
"=  c #69555E",
"-  c #705552",
";  c #725A53",
":  c #7A6658",
">  c #595660",
",  c #6A5760",
"<  c #665A60",
"1  c #6C5A63",
"2  c #725E67",
"3  c #745F68",
"4  c #656168",
"5  c #716067",
"6  c #73636A",
"7  c #73686E",
"8  c #78636C",
"9  c #7C6471",
"0  c #7D6B73",
"q  c #8E492D",
"w  c #9B4C25",
"e  c #9C4D2A",
"r  c #944C2D",
"t  c #9E522C",
"y  c #824530",
"u  c #954F32",
"i  c #954F3A",
"p  c #8A533A",
"a  c #9E5432",
"s  c #9E5A3B",
"d  c #A04E27",
"f  c #A24F29",
"g  c #A25127",
"h  c #A5532B",
"j  c #AB562C",
"k  c #AD592E",
"l  c #B2572C",
"z  c #B15B2E",
"x  c #A25633",
"c  c #AD5731",
"v  c #A75932",
"b  c #AE5A31",
"n  c #A15E3D",
"m  c #B55730",
"M  c #B25C31",
"N  c #A5633E",
"B  c #B46234",
"V  c #BC6636",
"C  c #BE6936",
"Z  c #B26539",
"A  c #BB6639",
"S  c #B46A39",
"D  c #BC6A39",
"F  c #BA713D",
"G  c #C06537",
"H  c #C16C3A",
"J  c #81574A",
"K  c #815344",
"L  c #A05E43",
"P  c #806C5D",
"I  c #9A6E57",
"U  c #926653",
"Y  c #A26243",
"T  c #A56449",
"R  c #A86A4C",
"E  c #BD7542",
"W  c #AE6E58",
"Q  c #A57058",
"!  c #AA735C",
"~  c #947A6D",
"^  c #836B75",
"/  c #856E79",
"(  c #85737A",
")  c #8B757E",
"_  c #88797E",
"`  c #AF7E6B",
"'  c #CB7643",
"]  c #C37A46",
"[  c #CA7B43",
"{  c #D07C48",
"}  c #D67D48",
"|  c #9A8079",
" . c #CD824B",
".. c #D5824A",
"X. c #DC844E",
"o. c #CA8055",
"O. c #E1894F",
"+. c #E48D51",
"@. c #E69053",
"#. c #EE9B53",
"$. c #E99354",
"%. c #F3A253",
"&. c #F6A857",
"*. c #F3AB5F",
"=. c #F3A65A",
"-. c #EFAB62",
";. c #E9A76A",
":. c #F2AC63",
">. c #F4B065",
",. c #F7B66B",
"<. c #F3BB77",
"1. c #7D7A80",
"2. c #8C7A82",
"3. c #8D8682",
"4. c #93838A",
"5. c #998A91",
"6. c #909194",
"7. c #949A9B",
"8. c #989F9B",
"9. c #9C9394",
"0. c #A38E89",
"q. c #B78F80",
"w. c #B69081",
"e. c #A79D9E",
"r. c #A89A9B",
"t. c #9BA4A3",
"y. c #A5A4A3",
"u. c #ADA4A5",
"i. c #B4A6A6",
"p. c #B5A7A9",
"a. c #B5AAAB",
"s. c #B9AEAE",
"d. c #BAAFB0",
"f. c #ABB0B0",
"g. c #BDB3B4",
"h. c #C09F91",
"j. c #C8B5A7",
"k. c #C1B7B7",
"l. c #C2B7B8",
"z. c #C4BCBC",
"x. c #C6C0BE",
"c. c #C5BDC0",
"v. c #C9BFC0",
"b. c #C7C1C1",
"n. c #CBC3C4",
"m. c #CBC7C8",
"M. c #CEC9C8",
"N. c #D0C5C7",
"B. c #D1C7C8",
"V. c #D4CDCD",
"C. c #D8CECF",
"Z. c #D7D1D1",
"A. c #DBD5D5",
"S. c #DDD8D7",
"D. c #DFD9D9",
"F. c #E3DDDD",
"G. c #E6E1DF",
"H. c #E7E0E0",
/* pixels */
"                                                                                                                        ",
"                                                                                                                        ",
"                                                                                                                        ",
"                                                                                                                        ",
"                                                                                                                        ",
"                                                                                                                        ",
"                                                                                                                        ",
"                                                                                                                        ",
"                                      z.A.F.A.i.                C.Z.A.D.S.Z.k.a.a.                                      ",
"                                    a.B.A.m.s.9.y.B.x.V.F.F.F.H.H.H.H.H.H.G.n.s.p.                                      ",
"                                      g.u.e.u.a.  z.s.p.p.s.g.n.B.V.C.C.B.z.s.d.d.                                      ",
"                                    A.A.C.C.Z.Z.Z.Z.B.n.a.g.l.g.s.a.s.g.g.l.k.n.V.Z.Z.Z.  z.                            ",
"                                        A.A.A.A.A.A.A.A.  C.A.A.A.A.A.A.A.A.A.A.A.A.S.A.                                ",
"                                A.                            A.A.A.A.A.A.                                              ",
"                  :.} w s s W j.A.S.    9 1 1 6 0 0 ( 2.( 0 ( 2.4.4.5.5.5.5.4.2.( _     A.A.B.                          ",
"                  %.} w h d d d a R s U - 1       6 5 1 , 2 6 6 2 3 3 3 6 6 8 2 2 ^ 2.  A.A.Z.                          ",
"                  %.' w k h M k k g h g u                                       < 3 (   A.A.Z.                          ",
"                  %.' e j h j z k h z k x                                         1 ^   A.A.A.                          ",
"                  =.' h l j j l c h c M a                                         2 ^   A.A.                            ",
"                  :.] f V j k k k h x a x                                         = ^   A.A.                            ",
"                  >.E h C M C M k h # 4 %                                         , ^     A.                            ",
"                  :.F j C B H C V g y . K                                         , ^ 4.                                ",
"                  -.S k C A D S A j z k L                                         = /     A.A.C.                        ",
"                  :.S k C V C S Z h z h T                                         * ^     A.A.Z.                        ",
"                  :.Z k C C R 3.; v l h                                           * ^     A.A.A.                        ",
"                  -.Z k H S 0.f.2.X l x                                           * ^ 2.  A.A.A.b.                      ",
"                  -.Z b C Y 6.y.t.O c h                                           * ^ (   A.A.A.M.                      ",
"                  -.Z B C I 7.t.8.+ x h                                           * ^ (   A.A.  M.                      ",
"                  -.Z b C ~ 8.t.7.O i h                                           * ^ )   A.A.  n.                      ",
"                  -.S M S | 8.t.7.+ p g                                           * ^ 2.                                ",
"                  :.S M D Q P : ; $ N t                                           * ^ (                                 ",
"                  :.F k H H .. .H [ M h                                           * ^ /                                 ",
"                  >.F b C C A A A C V h                                           * ^ /   A.A.A.                        ",
"                  >.E Z C C z D C C C h                                           * ^ /   A.A.A.                        ",
"                  >.] b V V k C C C D h                                           * ^ /   A.A.A.                        ",
"                  >.] j V C M D D V C j Y                                         = ^ ^   A.A.A.                        ",
"                  *...g V C z B H A V k s                                       7 = ^ ^   A.A.A.S.                      ",
"                  %.[ d V V B V G A B z Y                                       7 = ^ ^   A.A.A.A.                      ",
"                  &.[ d V V B M V B b M x                                       = , ^ ^     A.  V.                      ",
"                  &...w V C B M B b h m a                                       * , ^ /       A.C.                      ",
"                  >.X.w h C B k M k h M x                                       7 1 ^ (   A.A.A.A.                      ",
"                  <.O.w j l z h l c h & J                                       1 2 ^ )   A.A.A.A.                      ",
"                  <.@.w j k c h k k h o @ ;                                     * 6 ^ _   A.A.A.A.m.                    ",
"                  ,.@.d f k c h c l h r r Y                                     * 6 ^ (   A.A.A.A.m.                    ",
"                    $.j h k k d k l j h j a                                     * 9 ^ 2.  A.A.A.S.M.                    ",
"                    #.c f l k d h l j h j t                                     * 0 )     A.A.A.D.m.                    ",
"                    #.Z f k j w h j d g a s                                     ( n.C.z.v.A.A.A.D.m.                    ",
"                    %.G e f f e n Y W | w.                                      s.g.k.n.z.S.D.D.F.v.                    ",
"                    ;.o.Y ` q.h.                                                e.i.i.s.a.z.n.v.a.                      ",
"                                                                                                                        ",
"                                                                                                                        ",
"                                                                                                                        ",
"                                                                                                                        ",
"                                                                                                                        ",
"                                                                                                                        ",
"                                                                                                                        ",
"                                                                                                                        ",
"                                                                                                                        ",
"                                                                                                                        ",
"                                                                                                                        "
};
