/* XPM */
static char *n11676054157[] = {
/* columns rows colors chars-per-pixel */
"60 60 97 2 ",
"   c None",
".  c #030203",
"X  c #0A0E06",
"o  c #050108",
"O  c #0F0C0C",
"+  c #140F0F",
"@  c #201C16",
"#  c #16240C",
"$  c #1B2912",
"%  c #29251F",
"&  c #2B281F",
"*  c #253717",
"=  c #332D23",
"-  c #2D3420",
";  c #3B372B",
":  c #4E4A3A",
">  c #514E3D",
",  c #46672C",
"<  c #504B40",
"1  c #5C5444",
"2  c #595F40",
"3  c #606044",
"4  c #6D654D",
"5  c #6C6652",
"6  c #6E6B55",
"7  c #766E55",
"8  c #746E5A",
"9  c #767055",
"0  c #7A7155",
"q  c #75725E",
"w  c #7B745C",
"e  c #7F785C",
"r  c #756F67",
"t  c #767362",
"y  c #7D7664",
"u  c #7F7A65",
"i  c #7A7A6A",
"p  c #81775B",
"a  c #837A5E",
"s  c #847C64",
"d  c #887D63",
"f  c #837D6A",
"g  c #887D68",
"h  c #8DAE42",
"j  c #82AF4B",
"k  c #868164",
"l  c #8D8066",
"z  c #8F8966",
"x  c #86816A",
"c  c #8B846B",
"v  c #8F896E",
"b  c #92876A",
"n  c #938B6D",
"m  c #929068",
"M  c #868271",
"N  c #8C8573",
"B  c #8F8973",
"V  c #8C8579",
"C  c #918672",
"Z  c #938C73",
"A  c #998E75",
"S  c #938D7A",
"D  c #969076",
"F  c #9B9275",
"G  c #97917B",
"H  c #9B947B",
"J  c #9F9A7F",
"K  c #A09579",
"L  c #A29A7D",
"P  c #A99E7F",
"I  c #A8A07E",
"U  c #86C04F",
"Y  c #99C546",
"T  c #9C9582",
"R  c #9D9881",
"E  c #9E998B",
"W  c #A29C84",
"Q  c #AB9F81",
"!  c #A39E8A",
"~  c #A29B91",
"^  c #A6A183",
"/  c #A9A285",
"(  c #A5A18A",
")  c #AAA28B",
"_  c #AFAA89",
"`  c #B0A68D",
"'  c #B2AA8C",
"]  c #AAA594",
"[  c #AEAA91",
"{  c #AEAA9B",
"}  c #B3AE94",
"|  c #B3AD9C",
" . c #B4B093",
".. c #B5B1A3",
"X. c #BAB6AA",
"o. c #BCBAAC",
"O. c #C3B7A0",
/* pixels */
"                                                                                                                        ",
"                                                                                                                        ",
"                                                                                                                        ",
"                                                                                                                        ",
"                                                  c B A R                                                               ",
"                                                g d v g D )                                                             ",
"                                              7 5 % > + = A '                                                           ",
"                                            y s @ . - o X 2 '                                                           ",
"                                            f 9 . # U . , Y m                                                           ",
"                                            f 4 . $ j O * h z                                                           ",
"                                              8 & ; 7 q : 3 H                                                           ",
"                                              g x n 5 C I '  .                                                          ",
"                                                C b 5 w P Z E                                                           ",
"                                                  d g Q L a 4 g n _                                                     ",
"                                                  N < | | e e w e L                                                     ",
"                                                  S H O.` a d 0 7 p )                                                   ",
"                                                    C / H p k a d w k                                                   ",
"                                                      u x C a b a f e x                                                 ",
"                                                      f f S N W H s c b W                                               ",
"                                                      B Z c V T k c G n J                                               ",
"                                                      g W M     C p B p F D                                             ",
"                                      t N c ^ ) } ( ( c F       G c x c / / }                                           ",
"                                  t u R   f                   Z H   c n                                                 ",
"                                  y C       T                 K b x f w y                                               ",
"                                B n R                         A d 7 e 1 4 K                                             ",
"                                  T E                         T f 8 f 1 5 f                                             ",
"                                                              g c c c 8 5 9 S                                           ",
"                                                              n L   V f 9 d D                                           ",
"                                                              Z /         g K                                           ",
"                                                              C W         g K                                           ",
"                                                              N (         f H                                           ",
"                                                              C (         x W                                           ",
"                                                              S R         S L                                           ",
"                                                              G G         G F                                           ",
"                                                              S J         Z L                                           ",
"                                                              g B         v W                                           ",
"                                                              f x         g W                                           ",
"                                                              c D       V a G                                           ",
"                                                              k m       V b J                                           ",
"                                                              f n         b x                                           ",
"                                                              8 c         G !                                           ",
"                                                              f c         R ..                                          ",
"                                                                B         W o.                                          ",
"                                                                B         ( o.                                          ",
"                                                                c         ( o.                                          ",
"                                                                c         ! X.                                          ",
"                                                                v         ! ..                                          ",
"                                                                n         R {                                           ",
"                                                                D         G !                                           ",
"                                                                S         v S                                           ",
"                                                                c         c c                                           ",
"                                                              r s         c G                                           ",
"                                                            t y e c       w E                                           ",
"                                                        i t 9 c W ]     u w v                                           ",
"                                                      q f D R [ { ] M 8 6 c ]                                           ",
"                                                      S J (   ~ S q y w t R o.                                          ",
"                                                              ~ S f y u M ..                                            ",
"                                                                                                                        ",
"                                                                                                                        ",
"                                                                                                                        "
};
