/* XPM */
static char *s1676302456[] = {
/* columns rows colors chars-per-pixel */
"60 60 240 2 ",
"   c #030302",
".  c #050B01",
"X  c #1A170F",
"o  c #231E17",
"O  c #2A2B09",
"+  c #2D3908",
"@  c #343C0D",
"#  c #323808",
"$  c #2B261B",
"%  c #2C2B1C",
"&  c #282815",
"*  c #322D16",
"=  c #322C1C",
"-  c #382F1E",
";  c #2E3215",
":  c #363B13",
">  c #393D14",
",  c #34341C",
"<  c #3B3C1B",
"1  c #363618",
"2  c #2E2821",
"3  c #342C24",
"4  c #362C2A",
"5  c #392E2C",
"6  c #362B25",
"7  c #363223",
"8  c #3A3425",
"9  c #3D3B24",
"0  c #35302B",
"q  c #3C332D",
"w  c #3D3A2B",
"e  c #353B25",
"r  c #3A2E33",
"t  c #3E3431",
"y  c #3E333B",
"u  c #3E3836",
"i  c #433E1C",
"p  c #423D24",
"a  c #41352E",
"s  c #423C2C",
"d  c #4A3F2D",
"f  c #413633",
"g  c #443A35",
"h  c #493C36",
"j  c #42363A",
"k  c #463C3A",
"l  c #493E3B",
"z  c #3B4D03",
"x  c #36420D",
"c  c #3C4B0C",
"v  c #374605",
"b  c #3D5304",
"n  c #3E530A",
"m  c #3F5802",
"M  c #3C4414",
"N  c #3C441C",
"B  c #3D4914",
"V  c #344D13",
"C  c #3E4221",
"Z  c #414C0C",
"A  c #404E07",
"S  c #425405",
"D  c #445C04",
"F  c #495D06",
"G  c #44540C",
"H  c #49540E",
"J  c #465B0B",
"K  c #4B5C0C",
"L  c #525F0E",
"P  c #444B14",
"I  c #42441C",
"U  c #444B1C",
"Y  c #474A1A",
"T  c #445313",
"R  c #4A5513",
"E  c #455912",
"W  c #4D5C14",
"Q  c #4A531C",
"!  c #4D5B1A",
"~  c #46521B",
"^  c #515E14",
"/  c #525C1C",
"(  c #466102",
")  c #4B6304",
"_  c #4C630B",
"`  c #4A6708",
"'  c #526A06",
"]  c #52690D",
"[  c #55690C",
"{  c #587209",
"}  c #4D6313",
"|  c #496017",
" . c #526413",
".. c #546A13",
"X. c #53631A",
"o. c #5A6C1C",
"O. c #566719",
"+. c #5B7117",
"@. c #626E1E",
"#. c #66791A",
"$. c #607907",
"%. c #434424",
"&. c #494525",
"*. c #444B23",
"=. c #4A4C25",
"-. c #45432C",
";. c #49432C",
":. c #4C4B2C",
">. c #464A29",
",. c #4C5422",
"<. c #4D512E",
"1. c #4E5A24",
"2. c #525624",
"3. c #535B23",
"4. c #555D2A",
"5. c #57592A",
"6. c #454233",
"7. c #4B4334",
"8. c #4C4A32",
"9. c #4C413D",
"0. c #4D4A3B",
"q. c #47413B",
"w. c #51443D",
"e. c #524B3D",
"r. c #504936",
"t. c #4E5234",
"y. c #5A5B35",
"u. c #575637",
"i. c #524F2E",
"p. c #625B3E",
"a. c #546123",
"s. c #596324",
"d. c #5C6C23",
"f. c #5B652B",
"g. c #596829",
"h. c #5E7122",
"j. c #5C6333",
"k. c #5B623A",
"l. c #61642C",
"z. c #616B2C",
"x. c #646E27",
"c. c #637323",
"v. c #6A7A23",
"b. c #68792B",
"n. c #646838",
"m. c #697434",
"M. c #727E36",
"N. c #3F3540",
"B. c #4B3E43",
"V. c #483A45",
"C. c #503C48",
"Z. c #4E4342",
"A. c #4C4546",
"S. c #524544",
"D. c #544945",
"F. c #524549",
"G. c #554B49",
"H. c #594D4B",
"J. c #594C45",
"K. c #5B534D",
"L. c #5A5545",
"P. c #594A53",
"I. c #5D5552",
"U. c #5C5B5A",
"Y. c #645D47",
"T. c #625B54",
"R. c #675D58",
"E. c #5E6555",
"W. c #666548",
"Q. c #71684E",
"!. c #727748",
"~. c #6B645D",
"^. c #6A6659",
"/. c #746D55",
"(. c #726C5C",
"). c #7A6F54",
"_. c #75715B",
"`. c #7B745C",
"'. c #787354",
"]. c #6F704D",
"[. c #695D61",
"{. c #6C6863",
"}. c #746C62",
"|. c #766E6B",
" X c #7B7462",
".X c #7E7A63",
"XX c #787469",
"oX c #7E7972",
"OX c #797371",
"+X c #69706E",
"@X c #827A5C",
"#X c #837C65",
"$X c #837C6B",
"%X c #877C64",
"&X c #817C75",
"*X c #837E7B",
"=X c #6B821B",
"-X c #6F8327",
";X c #76862D",
":X c #768630",
">X c #7DA147",
",X c #7B8350",
"<X c #84865C",
"1X c #8A935F",
"2X c #92BB5E",
"3X c #8C8265",
"4X c #8C856B",
"5X c #928A6C",
"6X c #92876C",
"7X c #8E8873",
"8X c #8B867B",
"9X c #8A8576",
"0X c #948C72",
"qX c #938C7B",
"wX c #9A8E70",
"eX c #9A9374",
"rX c #9B947B",
"tX c #999377",
"yX c #899262",
"uX c #A5997A",
"iX c #A7A37D",
"pX c #BCF660",
"aX c #B2EA5F",
"sX c #888683",
"dX c #999483",
"fX c #938F80",
"gX c #A49C85",
"hX c #A39E90",
"jX c #ABA384",
"kX c #A9A38A",
"lX c #ABA790",
"zX c #B3AC97",
"xX c #B5B196",
"cX c #B6AC8E",
"vX c #B8B3A5",
"bX c #C2B69D",
"nX c #C3BDAD",
"mX c #C6C1AE",
"MX c #CCC8B6",
"NX c #DBD6C4",
/* pixels */
"S.9.Z.Z.Z.S.Z.Z.S.Z.S.Z.l B.r q !.Q Z.D.I.P.J.F.Z.S.H.G.F.g s.D.D.Z.4 8 g k g h 9.k h l l g g g k g l l 9.l a 5 k k Z.9.",
"Z.9.S.Z.Z.Z.Z.S.K.S.Z.9.Z.9.l 0.K D l k.t.y.K.G.&.9.Q f 5 X.o.,.f k 4 q q t g k k g l 9.l q g l h l 9.h h 9.t k q.j 9.Z.",
"w.Z.Z.9.9.Z.Z.S.D.A.l S.9.g k Z.u.N 0. .E 3.u.<.@.$  .q k w 4 3 t q t q 4 0 q f g l S.9.g g f l l k g k g l t l Z.k Z.Z.",
"7.Z.Z.l k Z.D.9.S.S.F.G.Z.A.D.Z.F.w.8.] J O.4.S } Q V.g g j t y g k k q t q q 4 = q g f f l q l l h g k g l 7.L.7.g Z.S.",
"B.S.9.Z.Z.S.S.S.S.F.S.K.Z.Z.e.9.:.k.:.c ! H >.T ^ W.f g g q g g g g g g f 5 g 5 4.O.t l q.9.l Z.l S.l k l g  .! g F.S.k ",
"B.S.Z.Z.Z.9.Z.K.D.G.S.Z.l S.9.8.) ] / d. .s.9 I r.l l l l h f t g g l f g f k q 3._ g q.w.g 9.7.h 9.l l k e.>.C g D.Z.k ",
"k A.S.Z.Z.Z.S.Z.G.D.9.9.A.9.7.6.m.v.d.' ( { y._.%X4X7XtXdX9.g g g k g 9.g 9.9.g l G.K.1.g B.h g 9.-.0 f.c E j g Z.9.S.9.",
"B.A.Z.Z.l l S.G.0.Z.l J.S.<.Q c.<.i.=.P O.,X`.5X7.rX%XY.jXlXl k g g g f s i.u 7.L.I.{./.0.3 > H c X.e n D J j B.l Z.l 9.",
"w.A.S.S.C.S.S.D.G.9.7.^ :.8.V (  .S.S.7.4.^.qX    L..   e cXA.l 9.g k f ) ' W.D.T.~.&XoXU.7 G m P _ / M O.P < g l 7.9.w.",
"B.S.S.Z.H.S.J.D.S.S.%.n d.n.D ' I s.3.j. .Q.$   . 2X  . aXiX9Xl 9.S.D.g D } j.L.^.|.&XoXn.s.@ T >.j.w $ ,.: v l.r.B.9.9.",
"F.F.l D.H.S.S.H.D.6.*.Z z n O.f.f.W G %.i _..   V >X% . pX@Xl T.9.9.D.g n./ a D.T.^.oXW.h.} M 1.} < M % + o.S < C.l 9.9.",
"S.e.B.J.S.J.S.S.k j.o.6.:X_ ] *.s F x.6 6 9X7 X % 7XgX6.9 gX5.Z.Z.9.Z.h k g l a U 4.m.W. .[ 3.Q ` y.T + W Z  .y.Z.h Z.S.",
"S.D.S.J.S.J.S.f y.| g.8.M.v E -.f 8 5 f._ D.3X5XwXo X iXjX.X) ..Q -.k h g k a 5 :.-.@.G U G ) v.0 4.B z x M ;.w.B.0.w.S.",
"F.e.S.J.S.J.S.*._ b.U , OX&X XXXOX}.[.t.P 3 g #X5XX & uX6X7...1.d.z.8.p / p t l S.J.S.u & R ( v.=Xm #.c ! -.l S.S.9.C.J.",
"S.D.D.w.C.l j q 3.*.} ..XX X|.|.{.~.L.I.1  .= $X3XuXuXuX6XY.dXeXyX) =.Q ) 4.t F.0.P.u.P.7.~ Q > } W 2.@ ,.-.l l w.S.S.S.",
"C.D.w.w.l l./ g a ,.S _ {.{.~.~.R.I.Z.l a %.2 ^.9X  vXmX#X/.@X`.jXO.3.&.m.u , h G.G.H.H.H.Z.Q M N *.M E D i l h k w.S.B.",
"k %.5.u.4.J  .% = y.R Q L.I.I.K.L.G.9.g S.sX8XK.qXzXbXbX'.).Q.W.3XW.s A.B.s L s l F.S.D.5.-.K D m.e.m.L b.% f f f f k S.",
"t %.` ) : i.> q r q g 7 A.G.G.D.A.S.g r {.}.~.I.f 0XuXtX/.3X%X5X.X5X}.Z.9.S.9 w 6.7.J.t.( f.A ] =.F.A.y.7.5 , D.f f f f ",
"3 O o.G O 3 5 5 f f a f 2 6.H.G.q p o.e 7.D.9.k / 3.qX`.nX%X5X@X#X3X Xh g s Y ..{ U u.S.g 7.l g Z.D.F.9.7.1 P a k t 4 5 ",
"3 % < 9 e.q t f f a q f q 4 j 5 8 X.m y.3 2 $ y A D <XQ.(.(.nX`.W.).p.cXg 9 T D ) #.H.H.Z.S.S.S.Z.Z.e.0.K O., j g k 4 5 ",
"7 r 4 g q t g h 9.5 f f g q 5 5 3 & b.7 r 4 < < E { *.rX(.^.S.6XY.Y.p.jXfXn.o._ H s.:.0.S.B.9.S.G.Z.h c J c.5 f f 4 4 5 ",
"8 f 5 a t 5 5 f g f q a q g g 5 t p G.$X.X X<X6.q _.'.5Xg K.h $X@Xu.Y.cXzXoXoXm.k.M X.E 7.l 9.Z.9.Z.Z.w / 8.a q f 5 4 q ",
"a t f q 4 f f a f k g g 9.f f f g XX_.`.dX^.OX].f.f XX$Xl l oX^.qX`.}.9.hX8XoX}.6.W } v 9.l Z.9.A.Z.9.Z.Z.D.q = a 4 5 q ",
"q t 5 q f f q f f f 5 g g g f l {./.dXj .X*.M *.Q a g g l h T.}.f _..X&X*XoX}.~.K.W %.i.e.g Z.l 7.9.h 9.9.9.3.d.N q q q ",
"8 q f q q q f f f f g f g g k l #X.Xk f T.:.* / h.%.g g h (.eX3X#XQ.Y.@X&XR.U.I.A.8 5 d.Q 9.k g A.9.7.C j g A E 4.q 5 q ",
"q t q t t q f q f q g g g g g l qXjXf 7 9Xl.; [ { z.f h l R.wX<X).W.Y.p.qXT.K.D.s C.l.J P g 9.g q > D s.u.q d s 8 6 q q ",
"q a 5 5 f t 5 g g f l S.f f f f qXfX4 N D F U x H p t j h j Y.}./.&X9.NXqXG.D.C.I x.5., c F Y * @.;X` ' < z.I a g 5 f f ",
"a q a q f f g g h g g k q S.B.S.A.9.* J _ _ U z.P j I 5.g l `.6XqX4X_.Q.`.8Xg 5 Z ( K c o.( 1.1 F } } _ O.n F @ r a q q ",
"q g f f f a f g g g 5 k Z.7.*.0.Z.q.M B A H : o.Q 6.0 * d H.6X7XK.D.(._.@XlX3 $ 1 n.c ) v.2.i 5 y.d.o.U M.W d.; 4 5 q f ",
"g a f g f g g l g g 5 l 6.,.G ~ f s n B I z.> l.Z p o.s.:.g %Xw.k f q 6 %X}.2 4 a h P y.l 0.k g M ] J +.~ #.H M * q 5 q ",
"g j f g f f g g g t k k -.x b ! H : s C E D } 9 ! Y d.G l.,.$X5 U %.=.8 %X4 q 5 g l h 9.l w.l w.9.>.4.G J n ) D L q 5 f ",
"f f g g g l g l u t k q.N ! W J D 1.9.;.z ..E < s 1.K S ;.f.9X5 Y =.z d.$Xn.s f l h l S.w.9.9.B.S.S.A.l.J H @ d.> 6 5 f ",
"t r 5 q g 5 5 4 5 q 8 q z m B O ! H =.=.k *.v B / { ( } p q 7Xh D.r.P  .#X( ,.f k h l w.l w.l 9.w.w.h B.s 2.l &.d f f 5 ",
"6 4 q t 5 t a a l g v M G b B 9 e E A R x.g.Q  .3.#.F H p.7.dX9.g w.g e.%X` v w g g 7.l B.h S.w.l w.w.l l l J.J.f f l 5 ",
"j k l l h g k h r.2.D / g.< l.;.I D ( X...J X.J b t.3.=.h 9.fXR.k B.9.w.4X# k.a g j h g g g h k l l l k l w.w.l l j a r ",
"g k g k h w.l l w.%.K P 7.9.s n._ [ h.,.X.b.O.' o.j.B.C.S.l $X8Xk l l f 0X_ x.M 8.u.g 9 = C.h k k k h h l l l S.B.l 5 a ",
"j k f q k g j h l 9.7.g 7.a s * z.v ! J X.J I a.#.<.k l h S.Y.gXf q g ~.5Xm ! ` ' b.u W.! 4 y t f h g k 9.g 9.k B.k 4 g ",
"j f a f g g f f g l l S.Z.< , > N 8 _ J h.N ,.I m U f f g g #X5Xk g f }.@Xw s _ H @ sXsX8XE.%.j.g h h l 9.l g 9.D.g a f ",
"u t f t g f f g g g k U.+X^.v } o.I  .B j.} J v ! U a h j k $XhXt j f #XuXO.z W 7.u.+X+X+XW.O.D p C.h l g l l l f f a f ",
"q 5 t u g f 5 f a f w U.U.z.v D R v.) T -X] ! I S B e B.a g $X X4 k Z.}.4X1XS q , 0 +X~.E.W.R c p l l l l h l g f 4 f r ",
"t f q f f f q f f a 5 q *.9 f. .% j.+.+ E { < a W P n.3.7.f K.}.f l S.l dX:XY f.u.K k t.d.b.g.f.Y f h l l 9.l l f 5 q q ",
"q r t q q a f t a q t 3 z -.$ ].7X9X_.} n J Y 9 8 1 D J y.g }.}.9.f h l vXL.g a n.E < ;X' ` n X.d.k h g 9.g l g f 4 4 q ",
"q 5 q t 4 q t 5 k 4 5 5 g .XsX9XoXOX^.L.s.b.J *.q q ;.Q a f R.qXk l f f nXw.g 9.f m.D v.H -XW -.g g k k l S.l t t t 4 q ",
"3 5 3 5 q q 3 7 4 4 5 f K.|.|.}.{.R.I.D.w T b Q t g 6 k g g k lXl g g l MXh l k k f.] U g.=XD v a l f h l l l g 5 5 k k ",
"9.r 6 t 6 > a.%.r t j s G.^.{.~.^.I.D.0.q f.L N 9 f q f q g g gXg 9.S.g MXl 9.h g 7 1 + O.} J c q h g g 9.l j u 5 j D.D.",
"Z.S.g 5 9 O.n < $ = 4 9 :.T.T.T.I.K.D.*.B I <.1.%.f f a g f g dXf f h g MXg l l 9.l q P { c #.%.f g g g 9.9.g t j H.Z.Z.",
"B.B.Z.A.g M G : ,.X.,.d.O.e.K.K.D.G.<. .m : : G  .@ f f g f g tXg g k g mXg f h h 9.6.%.j., &.8 k g l 9.k H.g q k Z.9.9.",
"Z.A.9.k 8 :.& O d.D m.F g.g k 9.g t 7 # z c ^ # v B a f f t g eXg f g g vX9.h f g g g u 3.S ,.f g g g l g l j q j k k 9.",
"g k k k k k * P #.:Xx c O 2 = 3 7 U D d.1 7 7 @ < 8 t t 5 f f tXl g g g zX5 g g j g j a Q Z 7.g g u t 9.g 9.f t 3 j 9.l ",
"q.6 Z.q.u j e ..( } G E W H & $ 1 1.d.J  .%., I N Z u g f q q qXl g g g gXf g g g g h j j &.*.,.u g q.g l g g a 5 j k q ",
"t 9.9.9.k Z.u.n ] b.] m b.(  .=.j t 8 O T , / ,.} ` 9 k g f D.5Xg g g G.uXD.g f g g g f h s.F ,.t f f g q.f g f t 8 j j ",
"g Z.Z.j Z.9.k y :.% , O...| g.-.k k j j 7 d t g v.c < f g f R.3Xf g f T.0XH.f f f g f f a i.%.5.f f g g g g 7.-.w / =.u ",
"A.Z.Z.Z.9.Z.Z.q.9.0.-.=.-.Q U f l k l l k g k k -.8 0 0 K.(..XtX}.g u OX`.g g u g g j g f a a * q :.w n.y q c._ m.Q < t ",
"q.F.k 9.k Z.A.q.k Z.k r 5 % 9.k j k l l k l l 9.B.j T.(._.#XkXzX&XK.}. X0X'.P 8 f g a g g f a / N @ ] G m.z f.d.k.B.9.f ",
"k A.Z.Z.9.9.H.A.Z.Z.q.8.T K :.g l l l l l Z.A.Z.9.~._.rXjXdXnX9X X.XW.(.kXyXh.-.:./ 4 5 6 4 5 4 * c D N : d.6.B.k j t t ",
"q.B.9.Z.A.Z.S.S.Z.Z.k C b S 4.7.9.B.S.l S.Z.Z.S.A.Z.9.T.Z.D.sX%X$X X.X9XzXv _ c q a 5 4 5 a h l q = p *.J S s l g t t 9.",
"k A.9.k Z.Z.9.Z.Z.Z.Z.-.c  .< k l k k Z.9.S.Z.S.S.G.A.g k k l f Z.~.{.8.%.Z H Q 8 2 t j h l l l k 5 5 1 ^ F 7 g a 4 l l ",
"Z.V.Z.Z.9.l k A.A.D.A.g %.e g 9.Z.9.k Z.l B.l D.D.D.S.5 4 4 4 f Z.Z.k t 5 3 9 < q t h l l h l h f f g a p &.6 q q l B.Z.",
"A.A.Z.Z.Z.Z.k Z.Z.Z.K.D.B.r l l l 9.9.Z.B.l l D.J.G.S.G.l f l S.Z.l Z.g 4 4 f k g f h l l j g f f h l k l k t g q.j l Z.",
"9.k 9.Z.S.Z.l 9.Z.Z.Z.D.k f l 9.w.B.Z.S.J.D.S.B.G.G.S.G.H.S.G.H.D.S.Z.g a g j h k g k h f k k g g l k k l k t 4 k k Z.Z."
};
