/* XPM */
static char *n21676054157[] = {
/* columns rows colors chars-per-pixel */
"60 60 235 2 ",
"   c None",
".  c #040603",
"X  c #141208",
"o  c #13100C",
"O  c #191D14",
"+  c #1A2E0F",
"@  c #202F12",
"#  c #323421",
"$  c #2F4D18",
"%  c #4B4637",
"&  c #4A4538",
"*  c #504E3E",
"=  c #534F41",
"-  c #565546",
";  c #5E5844",
":  c #665E45",
">  c #615D48",
",  c #68624E",
"<  c #69644F",
"1  c #696351",
"2  c #6E6551",
"3  c #696355",
"4  c #6F6A51",
"5  c #6D6853",
"6  c #756C53",
"7  c #756B56",
"8  c #716A59",
"9  c #726E59",
"0  c #736E59",
"q  c #716C5A",
"w  c #766D59",
"e  c #776F59",
"r  c #746F5B",
"t  c #767156",
"y  c #767059",
"u  c #76715A",
"i  c #76725A",
"p  c #73705F",
"a  c #76725D",
"s  c #77745C",
"d  c #787959",
"f  c #7F785F",
"g  c #777260",
"h  c #757164",
"j  c #7B7760",
"k  c #7B7463",
"l  c #7C7460",
"z  c #7D7662",
"x  c #787464",
"c  c #7A7564",
"v  c #7E7861",
"b  c #7D7863",
"n  c #7E7A62",
"m  c #7D7966",
"M  c #7C7868",
"N  c #7F7868",
"B  c #7F796A",
"V  c #7E7B6A",
"C  c #7F7D6B",
"Z  c #7D7C73",
"A  c #82795D",
"S  c #827A60",
"D  c #837A63",
"F  c #827C63",
"G  c #827D63",
"H  c #827864",
"J  c #817A64",
"K  c #857B64",
"L  c #867B64",
"P  c #817C64",
"I  c #837C64",
"U  c #827C65",
"Y  c #837F66",
"T  c #847D64",
"R  c #847D65",
"E  c #857E67",
"W  c #867E67",
"Q  c #887F67",
"!  c #807B68",
"~  c #837C68",
"^  c #817D6A",
"/  c #837D6A",
"(  c #837F6F",
")  c #887F69",
"_  c #857E72",
"`  c #67A62D",
"'  c #769751",
"]  c #9BA75F",
"[  c #8ABA51",
"{  c #878266",
"}  c #868565",
"|  c #8A8266",
" . c #8F8365",
".. c #8E8467",
"X. c #87826A",
"o. c #86806C",
"O. c #86816E",
"+. c #888168",
"@. c #888169",
"#. c #8B8269",
"$. c #8C8268",
"%. c #8E8368",
"&. c #898468",
"*. c #8B846A",
"=. c #8C8569",
"-. c #8E8469",
";. c #8C876A",
":. c #8D866B",
">. c #8E866A",
",. c #88856C",
"<. c #8A846D",
"1. c #88856F",
"2. c #8D856D",
"3. c #8F866C",
"4. c #8D856E",
"5. c #8D876E",
"6. c #8E866F",
"7. c #8E876F",
"8. c #8E886D",
"9. c #8D896F",
"0. c #90866C",
"q. c #90896E",
"w. c #918A6E",
"e. c #938B6F",
"r. c #8A9066",
"t. c #858171",
"y. c #8B8471",
"u. c #8B8773",
"i. c #8C8471",
"p. c #8F8770",
"a. c #8C8673",
"s. c #8E8970",
"d. c #8E8871",
"f. c #8D8972",
"g. c #8E8C70",
"h. c #8D8874",
"j. c #8C8875",
"k. c #8F8974",
"l. c #8F8B75",
"z. c #8C8877",
"x. c #8F8A76",
"c. c #8D8779",
"v. c #8D867A",
"b. c #908970",
"n. c #928A71",
"m. c #918A72",
"M. c #938A72",
"N. c #938B72",
"B. c #918D72",
"V. c #958C72",
"C. c #948D72",
"Z. c #978E73",
"A. c #918A74",
"S. c #918B75",
"D. c #938B74",
"F. c #978B75",
"G. c #938C74",
"H. c #938D74",
"J. c #928C77",
"K. c #948D75",
"L. c #9A8E73",
"P. c #998F76",
"I. c #918B78",
"U. c #928B78",
"Y. c #928B79",
"T. c #948F7B",
"R. c #938E7D",
"E. c #938F7E",
"W. c #928F7F",
"Q. c #969076",
"!. c #979176",
"~. c #9B9072",
"^. c #999074",
"/. c #989276",
"(. c #9C9275",
"). c #9F9777",
"_. c #95917C",
"`. c #98917B",
"'. c #9A927B",
"]. c #99947B",
"[. c #9C9678",
"{. c #9D957A",
"}. c #9D977B",
"|. c #9B947D",
" X c #9F977D",
".X c #9C977F",
"XX c #9E977F",
"oX c #9F987B",
"OX c #A0967B",
"+X c #A0977C",
"@X c #A19A7F",
"#X c #ACA57E",
"$X c #989380",
"%X c #9B9583",
"&X c #999682",
"*X c #9C9481",
"=X c #9C9682",
"-X c #9B9883",
";X c #9E9880",
":X c #9E9881",
">X c #9F9B80",
",X c #9E9882",
"<X c #9F9D83",
"1X c #A29780",
"2X c #A19982",
"3X c #A49E82",
"4X c #A49E84",
"5X c #A49F85",
"6X c #A79F84",
"7X c #A79F85",
"8X c #A69E87",
"9X c #A89C81",
"0X c #A89E80",
"qX c #A89D82",
"wX c #A59F88",
"eX c #A19F91",
"rX c #A59F90",
"tX c #A5A182",
"yX c #A6A085",
"uX c #AAA284",
"iX c #AEA687",
"pX c #AAA688",
"aX c #ADA488",
"sX c #ABA48F",
"dX c #AEA690",
"fX c #AFA691",
"gX c #ADA692",
"hX c #AAA796",
"jX c #AAA797",
"kX c #AFAB91",
"lX c #AFA99F",
"zX c #B7AF97",
"xX c #B2AD98",
"cX c #B1AE9D",
"vX c #BAB6A9",
/* pixels */
"                                                                                                                        ",
"                                                                                                                        ",
"                                                                                                                        ",
"                                                                                                                        ",
"                                                          &X                                                            ",
"                                                        j.& ; <X                                                        ",
"                                                      k = . O p. X                                                      ",
"                                                      P o + [ # $ r.                                                    ",
"                                                      ^ X @ ' - ` ]                                                     ",
"                                                      T L q.% 1 d }                                                     ",
"                                              eX        : %.Q #.#XxX                                                    ",
"                                            $X5.        g N * dX                                                        ",
"                                            K.%.P   _.  v.l   jX                                                        ",
"                                            H.A T   S.  _ 1XzX                                                          ",
"                                              | 1.U `.  ^ L.aX                                                          ",
"                                              =X%.L.V.~ o.d.1.g.                                                        ",
"                                                V.0XU < F { t l kX                                                      ",
"                                                +XiX3 i { #.6 S.wX                                                      ",
"                                                OX  8 S :.m.9 d.8X                                                      ",
"                                                (.  l ~ q.!.j._.3X                                                      ",
"                                              F.      ~ 8.V.d.I.yX                                                      ",
"                                            :.^.      P ;.N.I.I.yXyX                                                    ",
"                                            ,X        v.  H.    d.H.                                                    ",
"                                                          j.      X.                                                    ",
"                                                          j.      {                                                     ",
"                                                            ^.    ,.                                                    ",
"                                                            m.    N.                                                    ",
"                                                        uXP.S #. .e.                                                    ",
"                                                      =X^.T w 7 6 w x                                                   ",
"                                                        l C q 1 a , >                                                   ",
"                                                      m. Xp.5.i.%.S F                                                   ",
"                                                    F.0X&X! E.Z   5.8.                                                  ",
"                                                      0X        =X                                                      ",
"                                                      OX        |.                                                      ",
"                                                      +X        ,X                                                      ",
"                                                       X        ].                                                      ",
"                                                      @X        pX                                                      ",
"                                                      !.      i.tX                                                      ",
"                                                      :.      D  X                                                      ",
"                                                      ..dX    =X                                                        ",
"                                                      0.      ,X                                                        ",
"                                                      ,X      .X                                                        ",
"                                                      dX      2X                                                        ",
"                                                      kX      yX                                                        ",
"                                                      sX                                                                ",
"                                                      8X                                                                ",
"                                                      `.    ,X                                                          ",
"                                                      5.    I.                                                          ",
"                                                      5.    j.                                                          ",
"                                                      m.    1.                                                          ",
"                                                      X.    i o.                                                        ",
"                                                    h u   N 2 l m N                                                     ",
"                                                    g u jX  lXR.n s b u.                                                ",
"                                                  x q 5 cX        -Xv.sX                                                ",
"                                                  R.( t.vX                                                              ",
"                                                                                                                        ",
"                                                                                                                        ",
"                                                                                                                        ",
"                                                                                                                        ",
"                                                                                                                        "
};
