/* XPM */
static char *n21676302795[] = {
/* columns rows colors chars-per-pixel */
"60 60 244 2 ",
"   c #040600",
".  c #15100A",
"X  c #1B1613",
"o  c #201D1C",
"O  c #2A2C0A",
"+  c #2D3908",
"@  c #343C0D",
"#  c #323709",
"$  c #2B261B",
"%  c #2C2A1B",
"&  c #2A2A15",
"*  c #322D15",
"=  c #322C1C",
"-  c #382F1E",
";  c #2E3215",
":  c #363B13",
">  c #393D13",
",  c #34341C",
"<  c #3B3C1C",
"1  c #363619",
"2  c #2E2822",
"3  c #342C24",
"4  c #362C2A",
"5  c #392E2C",
"6  c #362A25",
"7  c #363223",
"8  c #3A3425",
"9  c #3D3B24",
"0  c #33312B",
"q  c #3C322D",
"w  c #3D3A2B",
"e  c #353B25",
"r  c #3A2F33",
"t  c #3E3431",
"y  c #3E3538",
"u  c #433E1C",
"i  c #423D25",
"p  c #41352E",
"a  c #423B2C",
"s  c #4A3F2D",
"d  c #413633",
"f  c #443A35",
"g  c #493C36",
"h  c #42363A",
"j  c #463C3A",
"k  c #493E3B",
"l  c #3B4D03",
"z  c #3C4B0C",
"x  c #374507",
"c  c #3D5304",
"v  c #3E530A",
"b  c #3F5802",
"n  c #3D4415",
"m  c #3C441B",
"M  c #3D4914",
"N  c #3E4221",
"B  c #404E0A",
"V  c #425405",
"C  c #435C04",
"Z  c #495D06",
"A  c #44540C",
"S  c #49540E",
"D  c #465B0B",
"F  c #4B5C0D",
"G  c #525F0E",
"H  c #434B13",
"J  c #42441C",
"K  c #444B1C",
"L  c #4B4D1E",
"P  c #445313",
"I  c #495513",
"U  c #4C5C14",
"Y  c #4A531C",
"T  c #4D5B1A",
"R  c #455517",
"E  c #515E14",
"W  c #525C1C",
"Q  c #466102",
"!  c #4B6304",
"~  c #4C630C",
"^  c #4B6908",
"/  c #526A06",
"(  c #53690D",
")  c #55680D",
"_  c #587208",
"`  c #4D6313",
"'  c #496017",
"]  c #526413",
"[  c #546913",
"{  c #53631A",
"}  c #5A6C1C",
"|  c #566718",
" . c #5B7117",
".. c #626E1E",
"X. c #66791A",
"o. c #607907",
"O. c #434424",
"+. c #494525",
"@. c #444B23",
"#. c #4A4C25",
"$. c #45432C",
"%. c #48442C",
"&. c #4C4C2C",
"*. c #464A29",
"=. c #4B5322",
"-. c #4D5429",
";. c #525624",
":. c #535B24",
">. c #555D2A",
",. c #565A2A",
"<. c #464333",
"1. c #4B4334",
"2. c #4D4A33",
"3. c #4C423D",
"4. c #4D4B3C",
"5. c #47413B",
"6. c #50443D",
"7. c #524B3C",
"8. c #504936",
"9. c #4E5234",
"0. c #5A5B35",
"q. c #575638",
"w. c #524F2E",
"e. c #625A3C",
"r. c #596324",
"t. c #5C6B23",
"y. c #5A642B",
"u. c #586627",
"i. c #5E7222",
"p. c #5D6333",
"a. c #5B623A",
"s. c #487E2F",
"d. c #61642C",
"f. c #616B2C",
"g. c #646E27",
"h. c #637323",
"j. c #6A7A23",
"k. c #67782B",
"l. c #646939",
"z. c #697435",
"x. c #727E36",
"c. c #3F3540",
"v. c #4B3E43",
"b. c #483B44",
"n. c #503C48",
"m. c #4E4342",
"M. c #4C4546",
"N. c #524544",
"B. c #544945",
"V. c #594D45",
"C. c #524549",
"Z. c #554B49",
"A. c #594D4B",
"S. c #584547",
"D. c #5B5644",
"F. c #5B544C",
"G. c #595644",
"H. c #594A53",
"J. c #5D5552",
"K. c #5C5B5A",
"L. c #635C4B",
"P. c #655D45",
"I. c #625B53",
"U. c #655D59",
"Y. c #65644C",
"T. c #676747",
"R. c #646253",
"E. c #6A6354",
"W. c #6C635C",
"Q. c #6E6A5B",
"!. c #686557",
"~. c #726C55",
"^. c #746D5B",
"/. c #75725B",
"(. c #7A735B",
"). c #797657",
"_. c #716D4D",
"`. c #695D61",
"'. c #6C6862",
"]. c #736C63",
"[. c #756C68",
"{. c #767264",
"}. c #7B7463",
"|. c #7E7A63",
" X c #75716B",
".X c #7B746C",
"XX c #7E7C6A",
"oX c #767964",
"OX c #7B7672",
"+X c #69706E",
"@X c #5E6555",
"#X c #837B5E",
"$X c #80755E",
"%X c #827B64",
"&X c #827D6B",
"*X c #897D63",
"=X c #827D74",
"-X c #857E77",
";X c #6B821B",
":X c #6F8327",
">X c #76862D",
",X c #718434",
"<X c #79864B",
"1X c #7D8859",
"2X c #7BCE55",
"3X c #82895D",
"4X c #868264",
"5X c #8C8366",
"6X c #85826A",
"7X c #8C846B",
"8X c #8D8A68",
"9X c #938A6D",
"0X c #92866B",
"qX c #90936B",
"wX c #8D8A74",
"eX c #8A8578",
"rX c #938C73",
"tX c #958B78",
"yX c #95917C",
"uX c #9B947B",
"iX c #9B9575",
"pX c #8A9464",
"aX c #A39A7C",
"sX c #A2977B",
"dX c #A9A07B",
"fX c #92A642",
"gX c #94F04F",
"hX c #888683",
"jX c #9B9785",
"kX c #A39D84",
"lX c #A49D8A",
"zX c #A19683",
"xX c #ACA381",
"cX c #ABA48C",
"vX c #A5A288",
"bX c #B2A788",
"nX c #ACA893",
"mX c #B5AD95",
"MX c #BBB299",
"NX c #BEB5A5",
"BX c #C6BCA4",
"VX c #CBC2AF",
"CX c #C8C2B3",
"ZX c #D4C9B6",
/* pixels */
"N.3.m.m.m.N.m.m.m.m.N.m.3.b.5 q T.Y N.B.F.H.V.S.M.3.A.C.Z.a y.M.N.M.4 q f j f j k f k g k f f f k d k k k 6.q 5 k j M.m.",
"m.3.N.m.m.m.m.N.J.N.3.3.m.3.k 4.] C 3.p.4.p.F.V.%.3.=.w 0 r.} T d f 5 q q q f k k j k 3.k q f k g k 1.f g 3.t j k f 3.3.",
"6.m.m.3.3.m.m.N.B.M.3.N.3.f k m.q.m 3.` R :.q.&...% ) t f p 4 4 q t t q 4 q 4 d j g N.3.f f d k k k j j f k d k 3.k m.m.",
"1.m.m.k j m.B.3.N.N.N.C.m.M.N.N.M.7.9.( D | ,.V ` T.jXeX]. Xt y f j j d w q q 4 = q f d d k q k k j f j j j 1.D.<.j m.N.",
"m.n.3.m.m.N.N.N.N.C.B.F.m.3.3.3.&.0.&.A T S *.R /.|.8XwXrXiXuXjXL.g d d d 5 f q >.| y j 3.3.k m.k k 1.j j f E T d A.N.j ",
"3.N.m.m.m.3.m.F.B.B.N.m.3.B.3.2.~ ( L h.~ u.i Y.!.(.8XqXrXiXaXaXhXf k d f d f q :.~ w k 3.j 3.1.1.3.k 3.k 4.@.N d B.m.j ",
"j M.N.m.m.m.N.m.A.B.3.3.m.4.1.<.z.h.} / Z _ =.Y._.&X7 Y.iXiXiXiXbXyXf j f 3.3.f k B.F.u.f m.f f 3.a 0 0.z U k h m.3.N.6.",
"v.M.m.m.k k N.Z.m.m.k V.M.&.Y h.-.q.#.H | x.9 L.*XX     gX5X8X2Xi.qXj f a w.y 3.Z.J.Q.~.4.6 > S z r.e v b D f b.k v.k k ",
"v.M.N.N.N.N.B.N.A.3.<.E &.&.M Q ] 6.m.1.y.O b.!.|.R.o 0 1XtXxXs.fX4Xj f ! / l.Z.U.W.=X=XK.7 A C R ` W M ] H < d k 1.k N.",
"6.N.N.m.B.N.B.B.B.N.O.v } l.b _ J r.,.p.] Y f a &X5XrX9XsX. 7X!., yX7.j D D a.G.R. X=X.Xl.>.x P O.y.w $ =.: x f.8.v.3.3.",
"C.M.k C.C.S.C.Z.B.1.@.z l R | y.y.' A O.9 $.f t d Y.$X0X4.  - bXmXlXB.j l.W p B.I.W.=XT.i.` n =.] 1 J $ # } V < v.k 3.6.",
"N.N.6.V.V.S.N.S.j p.} <.>X` ^ O.p Z h.6 8 p h p d  X~.0XsXkXxXcXm.3.3.k j g g p K ,.l.T.] / :.T ^ ,.P + U B ] 0.v.k m.N.",
"N.B.6.V.S.B.3.f 0.' i.<.x.l U $.a q 4 f.~ 3 8 h h jXP.$XU.kXaX,XK $.k s f k p 5 9.O...B J A ! h.0 >.z x x m %.3.3.8.N.N.",
"S.7.S.C.N.V.C.@.~ k.J , OX-XoX.XOX].`.&.K 3 d {.%X^.$XeX. VXVX{.7XnX2.O.W i t k N.V.C.f * S Q k.:Xb X.M r.i 6.n.v.N.N.V.",
"C.7.V.N.6.v.d q :.=.U | [.{. X[.'.W.D.J.* | 6 0X*XL.0X*X#XD.wXP.dXmX=.@.! >.t M.N.H.q.H.3.R Y @ ~ U =.: =.O.k k N.N.N.N.",
"n.C.6.6.k d.W d w @.V ^ '.'.'.U.U.J.N.k p O.2 0XBX%XsXmXcXMXtXD.8XcX,.+.k.y , <.Z.B.A.A.A.N.Y M m @.M D b J g k k 3.N.v.",
"j +.,.q.>.D { % = q.P R F.J.F.F.Z.Z.m.f B.hX-X5XCX{.5XsXdX0X(.$X~.tXp C.k a G a k C.B.B.:.$.F Z z.8.z.~ k.$ d d q d g N.",
"t O.^ ! @ w.> q r q f 8 B.Z.Z.Z.N.N.j 0 W.].'.5X7XlX(.%X0X*X$X_.I.q.L.m.3.M.9 w <.1.B.9.! y.B ~ &.C.C.0.1.5 , S.d h d t ",
"3 O } S O 4 5 5 d d q f % j A.C.q 9 | e 8.C.4.4X-X%X%X/.zX*X0X9X#X7XnXj f a J (  .K q.N.a 3.3.h m.B.C.3.1.: H a j d 4 5 ",
"4 % , 9 9.q q d p d q f q 3 f 5 7 r.b p.2 2 $ #XkXmXrXkX(.*X#X^.sX(.yXh j 9 P Z ! X.A.Z.m.m.N.N.m.m.7.4.F { , h j j 4 5 ",
"7 5 4 d q t d k 3.5 d d f t 4 5 F.G.qX, r 4 1 XX3X}.%XzXk 0X0XrX7XyX7X].N.0. .~ Z y.&.8.N.v.3.N.Z.m.k z D h.5 d d 4 4 5 ",
"8 d q d d q q d d d p d t f Q.].8XuXrXmX&X8 R 6XyXq.T.U.d E.rXVXuX_.7.q.1XeX-Xz.0.n ` P 1.v.3.m.m.3.v.9 W 2.p q f 4 4 q ",
"p 5 d q 5 q p d d k d f k ^.~./.cXwX4X9XiXyX[.(.9Xf eXjXj ].|.lX(.(./.E.E.J.OX'.$.U ` x 3.k m.3.N.M.3.m.m.B.q 3 q 4 4 q ",
"q t 5 q t t d d p d 5 f f |./.%Xy k F.yXq K 5XkXl.d j f j j |.rXV.~.eXwX7XyXjXW.A.U @.q.8.k 3.k 3.1.k 3.3.1.:.t.m p q q ",
"q q t q q q t d d d f d {.5XkX5Xj g F.&Xw a # ;.i.O.d d g h &XE.L.&X].%XeX9XjXK.M.7 q } L 3.k d m.3.2.w f d B P 0.8 5 p ",
"w q q p d q d q p q f f XXcX].jXf d W.a 2.d.; ] _ d.&X^.g g 7XtX|.rXU.lX'._.Q.B.a n.d.D M f 1.f q : C r.q.q +.a = 5 q q ",
"q q 5 q d d 5 f f d k B.q p f d q 8 4 m Z D J x S E.aXiX9X[.7XyX#X#XJ.I.J..XB.n.J g.q.1 z D K , ..>X^ / 1 f.J p d 5 d d ",
"p q d q t d f f j f f f q C.3.M.M.k * D ~ ~ R f.J f iX9X(.}.L.L.P.e.W.B.B.3.f 4 B ! Z B } ! =.1 D ~ ` ~ } A Z @ y 8 q p ",
"p d d d d d d f f f 5 h N.<.+.4.v.5.n M B S : } R <.&X5X~.[.L.E.Y.q.t f d 5 6 $ 1 l.z ! X.,.u 8 0.}  .K x.U t.; 4 5 q d ",
"f p d d d f f g f j q 3.<.=.D Y f p b M J f.> d.H ^.7X5X*XE.E.E.P./.|.F.4 6 2 0 p k J ,.3.3.h j J ] D  .R X.S n * q 5 q ",
"d j d f d d f f j q f j $.x l ' D : p N D C ' 9 I 7XlXcX6Xl.(.(.eX|.6XyX6 4 5 5 g k k 8.k 6.k 6.1.$.>.P D v ! V G q d d ",
"d y f f f k j k t t h M.m Y U D Z =.m.%.l ` U < XXuX` c G.!.6XE.P.T./.pX8 l.a t k k k 3.6.3.3.m.N.N.M.d.D D @ t.: 3 5 d ",
"q t 5 t d q 5 4 5 5 8 q l c M + U S -.@.5.@.# ).6X_ Q U a !.j k U.8.&X3XY Z T f j g k 6.k 6.k 3.6.k 1.n.p ;.8.+.g d d 5 ",
"6 4 q t q d w p k f x n A c M 8 8 R z I g.t.R jX<Xj.Z D e.1.m.1.g 6.L.{.U ~ x q f a 1.v.k g N.N.6.k k 6.6.k S.N.d d k 4 ",
"h k k k f f d k 8.;.Z { u.< d.%.J C ! ' [ D &X~ c 9.:.*.g 3.3.k j k .XvXJ + l.p j f g f d f g k k k k g g 6.6.k k h d 5 ",
"f h f j f N.k k 6.O.S H 1.3.a l.~ ) i.=.W k.yX/  .l.b.v.N.k j k h k M.lXu.Z f.n 2.7.a i , n.f j k k f k k k k N.m.j 5 d ",
"j f d q j f g g 3.k g 5.1.p a * f.l T D { XX_.r.X.&.f 3.g 3.f f d q d tXz.b T ^ ( k.y Y.T r y t p f g f 3.f 3.j m.j 5 d ",
"y h p d f f d d p 3.k m.m.< , : < 8 ~ D /.yX=.N V K f f d j d j j j W.8XjX9 w ~ A @ hXhXeXR.O.p.g k k k g 3.j k N.d q t ",
"t t d t f d f d d f <.K. X@Xl U } J [ _./.T.<Xx U @.p f h k d k 5 j eX(.tX| l U %.G.+X+X+XY.| C a v.g g f k k k d d t d ",
"q r t t f d q d d d t K.K.f.x Z U j.D R :X9XpXJ V M 8 b.p d d p 5 j ^.sXvX .V q 1 4 +X!.@Xl.Y z i k k g k k k f d 5 d t ",
"t d q d d d q d d p t 4 @.9 y.] % p. .+ D <XuXf I P f.:.1.d d f f k W.xXsXt.J y.0.D j 9.t.k.r.t.L d k g k 3.3.j t 5 q q ",
"q q t q p q d t p q q 3 c O.$ _.eXeX/.' A ~ qX8 q 1 S D q.d d r k d k aXVX1.%.p l.R 9 >X( ^ A W } k j f 3.j k d d 4 5 q ",
"q q q q 4 q q 5 j 4 4 5 f &XhXeXOXOX!.G.r.j.7X=.9 r $.=.p f d k k g d iXZXg f m.a k.D j.U :XU N f p g k f N.k t t t 4 q ",
"3 5 4 5 q q 4 7 4 5 5 f A. X[.[.'.U.J.A.q v y.4Xq f 8 k d p k g 3.f f uXZXf j k j y.] H y.;XQ x p b.d f g 3.3.f q 5 j k ",
"3.r 6 t 5 1 r.N r t h a Z.Q.Q.W.!.I.B.8.q u.~ aX8.d q d p f d f f 3.N.kXVXk 3.g <.8 1 # ] ` A z q k d g 3.j j y 4 h B.B.",
"m.M.d 5 i { v < $ = 5 9 &.I.U.J.J.G.N.*.H J 9.jX|.w d d f d f d d d k cXBXj g k k j q H  .l ;XO.f f f d 3.3.f t h A.m.m.",
"v.M.m.M.f x A : =.W =.t.| 4.F.F.Z.C.&.] c @ > ).aX@ d d f d d k f g g U.bXk f f k k j m p.; +.8 f f 3.3.k A.f q h m.3.m.",
"m.v.m.k 8 &.& O i.C z.D t.f j 3.f f 7 + c z ] + uXM p d d d f f d d d {.aXW.g f f f f f :.V -.t f f f g j j h 4 f k k 3.",
"f j k k j j * H X.>Xx z O % 3 3 , Y V h.; 7 9 @ /./.q d 6 d d j k g k .XiX}.d d d d k p Y H 2.<.f t w k k 3.d t 3 j 3.k ",
"<.4 3.v.y y 7 _ Q ` A R W A & % 1 =.t.D ] O.= J |.lXy f d q q f k d f d 0XE.k d k f g h d +.@.=.y f j j g f f f 4 h f 5 ",
"t 3.m.5.j M.G.v ( k.( b j.Q ' #.b.d 8 O R , W =.<X5X1Xh k p f d f g d d |.tXd f d f d h g y.C =.d t f t j f d t t q h j ",
"h k 3.k m.5.j y &.$ e [ [ ' t.a h y f h = s U.R.{.tXnXd f d d 3.d f d ].E.|.d d d g d d d w.O.w.d f f f j f 1.$.9 W *.y ",
"M.m.m.3.5.m.m.j 5.N.$.&.$.Y @.t k j k k j W.Q.~.|.cXvX5 w j y f f f t f L.~.h h f a h f p d p = q 2.a e.y 8 f.~ k.Y 9 t ",
"5.C.j m.k m.N.3.k m.k 4 5 % 1.k f j k ].^.6XkXmXnXeXf 5 [.OX.X4.d f f  XY.P.Q.8 h d a d d d q W N x / A z.l y.} a.v.k d ",
"k M.m.m.5.3.A.M.m.3.k &.R D &.f k k k OXjXjX.X3.k m.4.B.F.I.F.A.l.U * ].XX(.(.XXT.T 5 q 4 4 5 4 % z C m > t.<.v.b.d t t ",
"4.b.3.m.M.M.N.m.m.M.j N c A >.1.m.k N.k N.m.m.B.M.m.k 3.m.B.m.3.< ; , ].|.q./.XX].5 5 5 5 p g k q = 9 @.~ V a j f t t 5.",
"h m.3.k m.m.3.m.m.M.m.O.z ` < j k j j m.m.m.N.N.M.Z.m.f j j j t 3.f 2 Y.}.T.1Xy.8 2 r d g k k g f q 4 ; E Z 8 h q 5 k k ",
"M.b.m.m.3.k k M.m.B.M.f $.8 <.k m.k j m.k 3.k B.B.B.N.q 4 5 4 f N.m.j r 5 3 9 , q t g k k k k g d f g p u %.8 5 q k k m.",
"M.v.5.m.m.m.j m.m.m.J.N.k r k 3.3.v.m.m.3.k 3.C.B.A.N.C.j d v.N.m.k k j 4 6 d j d h k k k d f d d f g j k j t f k j M.3.",
"3.j m.m.N.m.3.3.m.m.m.C.j d k 3.k k m.N.S.C.6.N.Z.Z.N.A.Z.N.V.V.B.N.m.f d d k f k g f g h g g d d k k k k j t 5 j h m.m."
};
