/* XPM */
static char *n31676054157[] = {
/* columns rows colors chars-per-pixel */
"60 60 102 2 ",
"   c None",
".  c #0A0100",
"X  c #0E0F0E",
"o  c #2E2B22",
"O  c #3A362D",
"+  c #3B452E",
"@  c #366A20",
"#  c #424333",
"$  c #56524A",
"%  c #5E524A",
"&  c #5D5A49",
"*  c #605644",
"=  c #655D45",
"-  c #605E4F",
";  c #66644E",
":  c #6A664F",
">  c #676A4F",
",  c #6E694D",
"<  c #70674B",
"1  c #736B4F",
"2  c #737341",
"3  c #676152",
"4  c #6B6357",
"5  c #6D6A55",
"6  c #6F6558",
"7  c #736C55",
"8  c #736E5C",
"9  c #796E5C",
"0  c #7B7251",
"q  c #75715D",
"w  c #7C755C",
"e  c #7E795D",
"r  c #736E60",
"t  c #767363",
"y  c #7C7663",
"u  c #7D7864",
"i  c #7C796A",
"p  c #80735C",
"a  c #827A5E",
"s  c #837C63",
"d  c #8A7F61",
"f  c #847E6A",
"g  c #817B71",
"h  c #5A803A",
"j  c #7AD93B",
"k  c #7B8554",
"l  c #83EE3D",
"z  c #889A46",
"x  c #878167",
"c  c #8A8265",
"v  c #858965",
"b  c #86816B",
"n  c #8C856B",
"m  c #8E8A6D",
"M  c #91856B",
"N  c #928C6D",
"B  c #9A8C6A",
"V  c #95916D",
"C  c #868473",
"Z  c #8B8674",
"A  c #8F8973",
"S  c #87857A",
"D  c #8E8B7A",
"F  c #948B74",
"G  c #9A8F73",
"H  c #908778",
"J  c #938E7C",
"K  c #988F7E",
"L  c #969174",
"P  c #999375",
"I  c #95917B",
"U  c #9B947C",
"Y  c #A28E7D",
"T  c #A19475",
"R  c #A39A7C",
"E  c #AA9D7E",
"W  c #98A573",
"Q  c #A5A17E",
"!  c #969480",
"~  c #9A9584",
"^  c #9D9982",
"/  c #9B968A",
"(  c #A69680",
")  c #A39C83",
"_  c #A89788",
"`  c #A49F8A",
"'  c #A7A283",
"]  c #A9A384",
"[  c #ACA987",
"{  c #A7A28B",
"}  c #A9A28B",
"|  c #ADA88C",
" . c #B1A683",
".. c #B0A98D",
"X. c #ADA692",
"o. c #ADA994",
"O. c #ACA799",
"+. c #B4AB92",
"@. c #B9B196",
"#. c #B7B39E",
"$. c #BAB19B",
"%. c #BEB8A2",
/* pixels */
"                                                                                                                        ",
"                                                                                                                        ",
"                                                                                                                        ",
"                                                                                                                        ",
"                                                                                                                        ",
"                                                    C D ! I ~                                                           ",
"                                                  t w x m L P U '                                                       ",
"                                                  7 s w N P U T U }                                                     ",
"                                                r w 5 X + v P _ W Y                                                     ",
"                                                  s * . @ j k # l z                                                     ",
"                                                  f a $ 5 n 9 n h 2                                                     ",
"                                                    c c T s o f F F                                                     ",
"                                                    r 1 G s 3 w +.                                                      ",
"                                                      w n n R ]                                                         ",
"                                                  Z f f K O ~ %.g Z                                                     ",
"                                                ~ s : f 9 s 8 y p ]                                                     ",
"                                                  M q M ( ( P f * V                                                     ",
"                                                  n 9 a E  .G 7 , y ..                                                  ",
"                                                  b i p d M s p , 4 V                                                   ",
"                                                  u w b f f s a s 7 F                                                   ",
"                                                  F n s H f d a f n G                                                   ",
"                                    y ~           ~ f s K   M B G c C F                                                 ",
"                                f y n e } #.    b ^   u     F P K a q y 5 t                                             ",
"                              q q f ) f n Q | o.N ^           n D x u 7 5 7 i                                           ",
"                            i n U ^     D       [             n f o.F u U s x                                           ",
"                            n L ^ U     J                     n f A   Z U n n                                           ",
"                                                      K U U   m F n ^     J                                             ",
"                                                      R B M f w 7 0 M                                                   ",
"                                                      ) c w y = 6 = s                                                   ",
"                                                      Z q s i -   & 8                                                   ",
"                                                    s P F F A w w w e m                                                 ",
"                                                    n X.  H   8 y   f A                                                 ",
"                                                  D {       S         n                                                 ",
"                                                S )                   b                                                 ",
"                                                I                     b                                                 ",
"                                              D                       t                                                 ",
"                                            J ~                       t U                                               ",
"                                          i f o.                      u I                                               ",
"                                          s < I                       x n                                               ",
"                                            M ..                      c R                                               ",
"                                              Q                       U ]                                               ",
"                                              P                         +.U                                             ",
"                                                )                       @.V                                             ",
"                                                )                       $.V                                             ",
"                                                                        $.V                                             ",
"                                                  +.                    +.V                                             ",
"                                                  )                     ) n                                             ",
"                                                  ^ +.                  E I                                             ",
"                                                  U R                   P R                                             ",
"                                                    d                   c )                                             ",
"                                                  i 1 }                 f P                                             ",
"                                              i 8 e U )                 8 7 I                                           ",
"                                          g y c m ' { O.                t y f                                           ",
"                                        S u I { {                       t ; ; 5                                         ",
"                                                                        y 7 5 7 f                                       ",
"                                                                        / b g C                                         ",
"                                                                                                                        ",
"                                                                                                                        ",
"                                                                                                                        ",
"                                                                                                                        "
};
