/* XPM */
static char *n2__1_1676302900[] = {
/* columns rows colors chars-per-pixel */
"60 60 238 2 ",
"   c #030501",
".  c #18140D",
"X  c #2A2C0A",
"o  c #2D3908",
"O  c #343C0D",
"+  c #323709",
"@  c #2B261B",
"#  c #2C2A1B",
"$  c #2A2A14",
"%  c #322D16",
"&  c #322C1C",
"*  c #382F1E",
"=  c #2E3215",
"-  c #363B13",
";  c #393D14",
":  c #34341C",
">  c #373919",
",  c #3B3C1C",
"<  c #353417",
"1  c #2D2823",
"2  c #342C24",
"3  c #362C2A",
"4  c #392E2C",
"5  c #362A25",
"6  c #363223",
"7  c #3A3425",
"8  c #3D3B24",
"9  c #35302B",
"0  c #3C332D",
"q  c #3D3A2B",
"w  c #353B25",
"e  c #3A2F33",
"r  c #3E3431",
"t  c #3E333A",
"y  c #3E3836",
"u  c #433E1C",
"i  c #423D24",
"p  c #41362E",
"a  c #423C2C",
"s  c #453A29",
"d  c #413633",
"f  c #443A35",
"g  c #493C36",
"h  c #42363A",
"j  c #463C3A",
"k  c #493E3B",
"l  c #374A05",
"z  c #3B4D03",
"x  c #36420D",
"c  c #3C4B0C",
"v  c #374506",
"b  c #3D5304",
"n  c #3E530A",
"m  c #3F5802",
"M  c #3C4414",
"N  c #3E4A14",
"B  c #3D441C",
"V  c #3A4515",
"C  c #3E5016",
"Z  c #3E4221",
"A  c #414C0C",
"S  c #404E07",
"D  c #425405",
"F  c #445C04",
"G  c #495D06",
"H  c #44540C",
"J  c #49550D",
"K  c #465B0B",
"L  c #4B5C0C",
"P  c #525F0E",
"I  c #444B14",
"U  c #42441C",
"Y  c #444B1C",
"T  c #484B1B",
"R  c #445313",
"E  c #495513",
"W  c #455912",
"Q  c #4D5C14",
"!  c #46521B",
"~  c #4A531C",
"^  c #4D5B1A",
"/  c #515E14",
"(  c #525C1C",
")  c #466102",
"_  c #4B6304",
"`  c #4C630B",
"'  c #4B6708",
"]  c #526A06",
"[  c #52690D",
"{  c #55690C",
"}  c #587209",
"|  c #4D6313",
" . c #496017",
".. c #526413",
"X. c #536A13",
"o. c #53631A",
"O. c #5A6C1C",
"+. c #566719",
"@. c #5C7114",
"#. c #5B701B",
"$. c #626E1E",
"%. c #66791A",
"&. c #607907",
"*. c #434324",
"=. c #494525",
"-. c #444B23",
";. c #4A4C25",
":. c #45432B",
">. c #48442C",
",. c #4C4C2C",
"<. c #464A29",
"1. c #524F2A",
"2. c #4C5422",
"3. c #4D512E",
"4. c #4E5A21",
"5. c #525624",
"6. c #535C23",
"7. c #555D2A",
"8. c #55572B",
"9. c #454233",
"0. c #4B4334",
"q. c #4D4A33",
"w. c #4C413D",
"e. c #4D4B3C",
"r. c #47413B",
"t. c #504B34",
"y. c #50443D",
"u. c #524B3C",
"i. c #4E5234",
"p. c #545333",
"a. c #595838",
"s. c #596324",
"d. c #5C6B23",
"f. c #5A652B",
"g. c #586627",
"h. c #5E7122",
"j. c #5D6333",
"k. c #5C623A",
"l. c #44632E",
"z. c #61642C",
"x. c #616B2C",
"c. c #646E27",
"v. c #637323",
"b. c #6A7A23",
"n. c #68792B",
"m. c #646939",
"M. c #6A7535",
"N. c #727E36",
"B. c #3F3540",
"V. c #4B3D42",
"C. c #483A45",
"Z. c #503C48",
"A. c #4E4342",
"S. c #4C4546",
"D. c #524544",
"F. c #544945",
"G. c #594D45",
"H. c #52464A",
"J. c #554B49",
"K. c #594D4B",
"L. c #584547",
"P. c #5A5545",
"I. c #5C544C",
"U. c #5B5747",
"Y. c #594A53",
"T. c #5D5552",
"R. c #5D5A59",
"E. c #645C49",
"W. c #625B53",
"Q. c #655F58",
"!. c #5E6555",
"~. c #666B44",
"^. c #6B664D",
"/. c #656649",
"(. c #756B4E",
"). c #6F7546",
"_. c #74754B",
"`. c #6A6553",
"'. c #6B635C",
"]. c #696659",
"[. c #746D55",
"{. c #736C5C",
"}. c #716656",
"|. c #7A725D",
" X c #78755A",
".X c #695D61",
"XX c #6D6661",
"oX c #6B6964",
"OX c #736C63",
"+X c #756E6B",
"@X c #767264",
"#X c #7B7463",
"$X c #7D7862",
"%X c #7B756A",
"&X c #78756A",
"*X c #7B7672",
"=X c #69706E",
"-X c #82775B",
";X c #837C6A",
":X c #837B63",
">X c #827C74",
",X c #837E7A",
"<X c #6B821B",
"1X c #6F8327",
"2X c #76862D",
"3X c #768630",
"4X c #788D49",
"5X c #8B846C",
"6X c #8E886E",
"7X c #888367",
"8X c #928A6D",
"9X c #96896E",
"0X c #8B8575",
"qX c #8B8678",
"wX c #938C74",
"eX c #978D79",
"rX c #9B9276",
"tX c #95917A",
"yX c #9B957C",
"uX c #9B9A79",
"iX c #A49B7D",
"pX c #A8A17F",
"aX c #828C53",
"sX c #A6F759",
"dX c #A6E86B",
"fX c #888682",
"gX c #938D83",
"hX c #9E9381",
"jX c #A29B82",
"kX c #A49C89",
"lX c #ABA48C",
"zX c #A9A285",
"xX c #A9A492",
"cX c #B1AB96",
"vX c #B8AD94",
"bX c #B6B3A3",
"nX c #C1BDB5",
"mX c #C9C4AA",
/* pixels */
"D.w.A.A.A.D.A.A.D.A.A.D.k V.e 0 ).! A.G.T.Y.F.H.A.y.K.H.H.g s.F.F.A.3 0 d j f g k f g k k d f d k f k k y.k p 4 k j A.A.",
"A.w.D.A.A.A.A.D.T.D.A.r.A.w.k e./ F k k.e.z.I.K.:.w.~ d 9 o.O.2.r j 9 q 0 r f f k k k r.k r f k f k k g f w.d j r.j r.A.",
"y.A.A.w.r.D.A.D.F.D.r.S.r.f k A.a.B w...W 6.P.,.$.# ..d j q 3 2 r 0 r 0 3 9 0 d f k D.w.f j d k k f j f f k r k r.k A.A.",
"0.A.A.k k w.D.A.D.D.H.J.A.S.D.D.S.y.3.[ K ..7.D | ~ C.p d j r t d j j p d 0 0 3 2 0 f d d g r g k k f r.f j 0.U.f g A.S.",
"V.D.w.A.A.D.F.A.D.F.D.K.A.A.u.r.,.k.,.c Q J -.R ( ~.d f f tX5XjXf f f f d 0 d 0 6.o.y j k w.r.D.k V.k k k f Q ^ f J.D.j ",
"r.D.A.A.A.w.A.I.F.J.F.A.k A.A.q._ [ 5.d...g.8 U t.g k k W..   5XuX'.k r d d j 0 ( [ f r.y.f k 0.0.w.k r.k u.<.Z d F.A.k ",
"V.A.D.A.A.A.D.D.J.F.w.w.S.w.0.>.M.b.O.] _ &.;.q D.k w.k %X    U.}.iX'.f f w.w.f k F.U.6.f V.g f w.a 0 f.x W j d A.w.D.A.",
"V.S.A.A.k k D.H.w.D.k G.D.3.~ v.,.p.;.I +.M.8 j k k w.@XqX  sX4X  dXuXg a 3.y w.K.R.XX[.e.2 ; J c o.w n F K j V.w.V.g k ",
"A.S.D.D.D.D.F.F.K.A.9./ <.q.C ) ..F.D.0.f.X C.g k k f Q.5X. l.:.1 sX_.d _ ] ~.F.W.'.>X*XR.6 H D ! X.( M ..Y , d w.0.k y.",
"V.D.D.A.F.D.F.F.D.D.*.n O.M.n ] U s.5.j.| ~ d a g g k k 7X9XrX  iX0XiX9.F | j.G.'.+X,X;Xm.6.M R *.f.q @ 4.O v z.t.V.w.w.",
"H.S.w.D.K.D.L.H.F.9.-.A z C +.f.f.Q H *.8 ,.f cXqXg g f f {.wXiXpXG.D.f m.6.p D.W.].>X/.h.| , ( | ; M @ o O.n i Z.k w.D.",
"D.u.y.L.F.L.D.L.j j.#.9.2X` [ *.a G d.5 7 a qX^.;Xg d *Xp kX. bXbXw.D.g f g g p ~ 7.m.~.X.] ( ^ ` a.R o Q A ..8.V.0.w.A.",
"H.F.F.F.L.F.w.d a. .d.9.3Xv W <.d q 3 x.` 2 jXrX|.f f #Xh E.).X.m.:.j g f g p 4 ,.:.$.A T H ' v.9 f.c l o U >.y.V.e.D.D.",
"H.u.L.F.F.G.H.-.[ v.U > *X,X#X&X+XOX.Xq.Y * ;X-X(.gX'.'.s eXvXmXh.f.q.*.( i r k D.G.S.f @ L ) n.<Xn %.N 6.*.y.Z.k D.y.L.",
"L.u.L.y.y.k h 0 6.-.| +.+X@X+X+XoX'.U.Y.% o.* kX8X X$Xp.9.-XjXiXF ` ;.~ ' 8.d H.u.Y.a.Y.0.! ~ ; ` | 4.O 6.*.k k y.D.D.F.",
"Z.D.D.y.k z.( d p 2.n ' XXXXXX'.Q.I.F.w.p -.# tX-XE.rX;XxX7Xa.[.aX+.6.=.M.r : f F.K.H.K.H.D.! I B -.M W F u g j k D.D.V.",
"j =.p.p.7.K o.# & p.E ! U.T.T.K.G.J.w.f F.fX,XK.wXvXzX}.$X8X[.[.-XB p H.w.a P a r.H.F.D.6.9.L F M.y.N.` n.# d d r d g D.",
"r *.' ' O 1.; 0 e 0 g 7 S.J.J.J.D.S.j 9 XXOXXXW.eXiXD `.6X8X:X/.xX9.f A.e.S.8 q 9.0.K.i._ f.S ` ;.H.S.a.0.4 : F.d h d r ",
"2 X O.H X 3 4 4 d d 4 d 1 9.K.J.q i O.w t.D.e.j rX).[.|.7X:X|.U.vX#Xw.k d a U { } Y a.F.f 0.k d w.F.H.w.0.< I p j y 4 4 ",
"6 # , , u.0 r d d d r d q 5 d r 6 6.m j.1 1 @ H.7XF @.$X6XwXyXxXxXjXp h j i E D _ %.K.L.A.D.D.D.A.A.u.e.L +.2 d f f 3 4 ",
"5 4 3 f 4 d d k w.4 f f f r 3 3 5 $ n.* e 3 > hX_.} Y @X7XyXzXkXyXjXg d d k.@.` K s.q.u.D.V.D.D.H.w.y.c K v.4 d d 3 3 3 ",
"7 d 0 r d 4 4 d d d 0 p p f d 0 r i h f r 7 k.zX@Xt.5.>X-X8XkXkXwXrXlXf r R.*XM.a.M | R 0.k w.A.w.A.V.8 ( q.q r g 3 3 0 ",
"p 4 d 0 4 q d d d g d f k d d d d j f f p p 7XlX6.g f ].#XqX*X@X'.eXyXr.gXfX*X@X9.Q | l e.k A.r.A.D.A.r.A.D.4 * r 4 4 0 ",
"0 r 0 0 r d r d d d 4 f f f d k j g j j r Y V -.~ p f f j OXhXr.f 0XgXfXqX*X+X'.I.Q *.p.w.g w.k 0.w.k w.A.0.6.d.B 0 0 0 ",
"0 q d 0 0 4 d d d d f d f d j k w.g j r q *.+ 5.d.-.d j j j rXd f %X0XoXXX'.R.T.S.6 4 d.;.w.k f A.r.q.q d f A H 7.0 4 0 ",
"0 0 0 p r r d 0 d 0 d f j f j k g d d 6 q.z.# [ } z.d g g f rXd w.r.#X'.Q.W.I.F.s Z.z.K M f 0.d d ; F s.a.0 =.a * 4 0 0 ",
"q p 4 4 d r 4 f j d r.D.d p d d 3 6 3 B G L Y O J =.r j g j wXh d W.&XW.I.K.F.C.=.c.p.> c _ Y & $.3X' ] > x.U p p 3 d d ",
"r 0 d 4 p f d f g f f d 0 D.A.A.D.k % K ` ` Y c.U d u 6.%X%X$X'.:X8XiXJ.F.r.d r A ) L S O.) 4.> K ` | ` +.n G - h p 4 0 ",
"d p d d d d d f d f e j D.0.-.e.S.r.M N A J - #.~ :.2 % rX9X(.:X-X|.8Xd g 4 5 @ - m.c ' %.5.i 7 a.O.O.Y N.| g.< 4 4 4 p ",
"d f d d d f f j f d 0 w.>.2.D ! d q F B U c.; z.I i d.s.E.P.U.K.U. Xt.E.2 5 1 9 p g U 7.w.w.g j U X.K @.~ %.H M % 4 4 d ",
"d j d f d d f f j r j k 9.x n ^ H - p 8 W F  .8 Q Y d.@XrX5XrX;X5XrX$X0X5 3 4 4 f k g y.k y.w.w.9.>.f.H K H _ F L q r d ",
"d h f f f j g k r r j k C ! Q K F 4.V.;.l X.K , f ( L rXzX).|.OX^.-X[.wX6 m.a d k k k w.y.w.w.A.D.D.C.z.K H - O.; 2 4 d ",
"0 e 0 0 d 0 4 4 4 0 7 0 b D I X Q J ;.;.y 2.l N ( } F rXlX0 g g G.;XT uX~ ` ~ d f k y.w.k y.k w.D.k >.V.s 5.y.=.g d 0 4 ",
"5 3 0 r 0 d 0 p w.d x ; D b N 8 q H c E c.f.~ +.4.b.G ).:Xw.w.0.f 9Xf w.Q ` v q d g g k k g D.D.k y.k D.k k L.L.p d k 4 ",
"h j k k j d h g t.5.F o.g., z.:.*.F _ o.X.K o.G z p.6.^.#Xw.w.V.k jXw.u.U + k.p f f 9.g d f f g k k k g k L.y.k k j d 4 ",
"f j f j g w.w.k w.-.J I 0.r.a m.' { d.2.o.n.+.' O.m.h OX;Xk f g j cXk d g.G c.M q.u.g 8 & H.j g k k f j k k k y.A.k 4 r ",
"h j d 0 f f g g k w.g 9.w.s g % x.l  .K o.` B s.%.3.g ;XqXV.j f W.;Xd f J m ^ ' ] n.y /.^ 3 t 0 d f g j w.f r.j A.j 4 d ",
"j d d d f g d d d w.j D.w., < - , 7 ` K h.B ~ U b T d #XkXg d j ;X%Xd j a 8 q ' E - fXfXfX!.*.z.g g g k w.k k k D.y 0 d ",
"y r d r d d d d d f j R.&X!.l Q O.U ..M j.| K v ^ -.p @XyXg r g |.;Xd D.q.+.z / >.P.=X=X=X/.+.F p V.k k f g k k d d r d ",
"3 e r r f d r d q g y R.R.x.v F E b._ ! <XX.^ U D N 7 U.iXd d F.jXK.D.V.B @.D 0 < 9 =X].T.~.~ c u k k k k g k j r 4 d r ",
"r h p d d d q r d r 0 0 -.8 f...# j.@.o W } 8 p E I x.|.rXd y g zXk D.k a d.U f.a.K j e.h.n.s.f.I d k k f w.k g d 4 4 r ",
"0 4 r 0 0 r d r p 0 r 5 z :.@ _.qX0X X^ n ` I 8 0 > K 0XrXd f e yXd g g j >.g a m.K , 2X] ' H  .d.j k g w.j k d d 3 4 q ",
"6 0 0 0 3 4 0 0 j 3 3 4 f ;XfX,X*X&X`.P.6.n.K -.8 e >.tXrXd d F.].k d f k g d A.d n.G 1XW 1XQ *.d f j g f F.k d r r 3 3 ",
"5 4 3 4 0 0 2 5 3 3 4 d G.+X+XOXoX'.T.H.q R b ~ r g 3 gXwXd k {.OXf f k g f k k h f...Y f.<X) v s C.d j k k k f e 3 k k ",
"A.e 2 r 4 - s.*.e r h p J.].XX'.].R.G.u.0 g.P *.7 d 0 gXwXd d {.f w.D.f f r.w.f f 7 < + ..` K c 0 g f g r.k j r 3 j F.J.",
"A.D.d e 8 ..n , @ * 3 8 3.W.Q.Q.T.U.A.-.N U 3.6.*.q d %XwXd f tXd f g d g j j k j j q R @.c %.*.d f f d A.k y r d K.A.A.",
"V.V.w.A.f V H - 2.o.^ h.X.F.I.G.G.H.;.o.n O ; A ` O d W.eXd d wXf f g f g d d g k k f *.j.: =.7 j f k w.k K.d r j A.k A.",
"A.S.A.k 7 ,.$ X d.F m.L d.f j r.f d 6 + b z ` + x M a K.yXd j tXd d d j d w.j r f g f d 6.D 2.f d g f k f k j 3 j k k k ",
"y j j k k j # I %.3Xv x X 1 2 2 : Y F v.< 6 7 O - q q W.iXr d zXk j g j f 4 d d f f k p ~ I 9.9.d d r w.f w.d r 5 j k k ",
"0.3 A.r.r y 6 } _  .H W Q L $ # > 4.g.G ..i : U Z c r T.jXe I.jXk f f d f r f f f f f h f ;.-.;.d d r.f k f d p 3 h g 4 ",
"r w.A.V.j A.P.n [ n.[ D n.) o.;.C.r 6 X R : ^ 2.X._ w 0XrXd #XjXf f f d f j f d f d g h f s.G 4.d f r d r.f j d r q y C.",
"y A.r.k A.r.f t ,.# > ..X.| d.q d j h h 2 >.r f b.c , @X8Xd U.p.%Xd d f f g d d d d d d e p.U p.d d r.f f d 0.:.8 ~ ;.y ",
"A.A.A.A.A.r.S.k r.e.:.,.:.! Y y k j k k j d k w.*.0 9 {.$Xj {.[.;X{.#X].f f d h g p h d d d p % 0 ,.q m.t 7 c.` n.~ 8 r ",
"r.H.j A.r.A.D.r.j A.V.3 4 # w.k j j k k j k k k V.j ].#X^.*XqXnX7X[.$X7X|.I I 7 h d p g d d 0 ( *.O [ D M.z f.d.k.h w.d ",
"k S.A.A.A.r.K.D.A.A.k ,.R L ,.f k k w.k V.A.A.A.w.&X^.`.^.Q.I.J.k.f.$XqXxX..f.*.3.Q 3 0 5 3 4 3 % c F B - d.9.V.j h r e ",
"w.C.r.A.A.A.D.S.A.S.j *.b D 8.q.V.k V.A.w.r.A.J.S.A.r.w.A.S.D.w., - 6 L ^ l ` I p 4 4 3 0 d g k 0 & a -.K F a k g y r k ",
"j S.r.k A.A.r.S.A.S.A.:.c ` , h k g h D.A.A.A.F.D.J.S.d f j j r A.j 1 :.*.A L ^ 7 1 e d g k k g d 0 5 < / J 7 d q 3 k k ",
"S.V.A.A.A.k k A.D.D.S.f :.7 9.w.A.r.k A.k D.k D.F.D.D.0 5 3 3 f w.A.j e 4 : 7 6 0 d g k k k k k d h j q , >.7 0 r j V.A.",
"S.V.r.A.w.A.r.A.A.A.I.F.V.e g w.k w.A.A.y.r.w.F.F.J.D.H.k h k F.A.k k f 3 3 d h f d k g k d f d d f g j g k r f k j k A.",
"w.k V.D.D.A.r.w.A.A.A.D.j d k A.D.k A.D.L.D.V.V.K.K.D.K.K.D.K.F.F.D.w.j d h g g g h g g h g g h d k k k k k r 4 k j A.A."
};
