/* XPM */
static char *s1675872668[] = {
/* columns rows colors chars-per-pixel */
"60 60 231 2 ",
"   c #2C2D0C",
".  c #282A08",
"X  c #2D3908",
"o  c #32320C",
"O  c #343C0D",
"+  c #333C06",
"@  c #2A2A14",
"#  c #2B261B",
"$  c #2C2A1B",
"%  c #322D15",
"&  c #322C1C",
"*  c #382F1E",
"=  c #2E3215",
"-  c #343315",
";  c #363B13",
":  c #393D14",
">  c #34341C",
",  c #373919",
"<  c #3B3B1C",
"1  c #3A361C",
"2  c #2D2A23",
"3  c #2F2621",
"4  c #312624",
"5  c #342C24",
"6  c #3A2E26",
"7  c #362C2A",
"8  c #392E2C",
"9  c #363223",
"0  c #3A3425",
"q  c #3D3B24",
"w  c #35302B",
"e  c #3C332D",
"r  c #3D3A2B",
"t  c #353B25",
"y  c #3A2F33",
"u  c #332838",
"i  c #3E3431",
"p  c #3F3831",
"a  c #3E333A",
"s  c #3D383C",
"d  c #433E1C",
"f  c #423D24",
"g  c #41362E",
"h  c #423C2C",
"j  c #453A29",
"k  c #413633",
"l  c #443A35",
"z  c #493C36",
"x  c #42363A",
"c  c #463C3A",
"v  c #493E3B",
"b  c #354404",
"n  c #394503",
"m  c #374A05",
"M  c #3B4D03",
"N  c #36420D",
"B  c #3A460B",
"V  c #3C4B0C",
"C  c #3D5304",
"Z  c #3F5802",
"A  c #3E530A",
"S  c #3C4314",
"D  c #3D4A13",
"F  c #3D441C",
"G  c #3A4515",
"H  c #3E5016",
"J  c #3E4221",
"K  c #404E07",
"L  c #414C0C",
"P  c #425405",
"I  c #445C04",
"U  c #495D06",
"Y  c #44540C",
"T  c #49550D",
"R  c #465B0B",
"E  c #4B5C0C",
"W  c #525F0E",
"Q  c #434B14",
"!  c #42441D",
"~  c #444B1C",
"^  c #4A4E1D",
"/  c #404416",
"(  c #445313",
")  c #495513",
"_  c #455912",
"`  c #4C5C14",
"'  c #46521B",
"]  c #4A531C",
"[  c #4D5B1A",
"{  c #515E14",
"}  c #525C1C",
"|  c #466102",
" . c #4B6304",
".. c #4B6904",
"X. c #47610A",
"o. c #4C630B",
"O. c #4E6C0C",
"+. c #526A06",
"@. c #53650D",
"#. c #52690D",
"$. c #596E0C",
"%. c #587209",
"&. c #4D6313",
"*. c #496017",
"=. c #526414",
"-. c #586514",
";. c #546A13",
":. c #53631A",
">. c #55691B",
",. c #5A6C1C",
"<. c #58661B",
"1. c #5C7114",
"2. c #5B701C",
"3. c #626E1E",
"4. c #65791A",
"5. c #66781A",
"6. c #607907",
"7. c #434324",
"8. c #494525",
"9. c #444B23",
"0. c #4A4C25",
"q. c #45432B",
"w. c #48442C",
"e. c #4C4C2C",
"r. c #464A29",
"t. c #524F2A",
"y. c #4C5422",
"u. c #4E5A21",
"i. c #4E512D",
"p. c #525624",
"a. c #535C23",
"s. c #53532D",
"d. c #555D2A",
"f. c #5A5E28",
"g. c #454233",
"h. c #4B4334",
"j. c #4C4A33",
"k. c #47413B",
"l. c #4C413D",
"z. c #4D4B3C",
"x. c #504B34",
"c. c #50443D",
"v. c #524B3D",
"b. c #4E5131",
"n. c #4C543D",
"m. c #545333",
"M. c #565B34",
"N. c #5A5B35",
"B. c #54543D",
"V. c #59543C",
"C. c #5B5B38",
"Z. c #605B3E",
"A. c #546223",
"S. c #596324",
"D. c #576A21",
"F. c #5C6B23",
"G. c #56622B",
"H. c #5A642B",
"J. c #5E6D2A",
"K. c #5E7122",
"L. c #5C6333",
"P. c #5B623A",
"I. c #626D24",
"U. c #61642C",
"Y. c #616B2D",
"T. c #696F2F",
"R. c #637323",
"E. c #667C26",
"W. c #6A7A23",
"Q. c #6B7B2C",
"!. c #66752B",
"~. c #636B34",
"^. c #64673B",
"/. c #6A7535",
"(. c #727E36",
"). c #3F3540",
"_. c #463A41",
"`. c #4C3E42",
"'. c #493A4A",
"]. c #503C48",
"[. c #4E4342",
"{. c #4E434A",
"}. c #4B4644",
"|. c #524544",
" X c #544945",
".X c #594D45",
"XX c #524549",
"oX c #554B49",
"OX c #594D4B",
"+X c #584547",
"@X c #5B544D",
"#X c #595446",
"$X c #594A53",
"%X c #5D5552",
"&X c #5D5A59",
"*X c #625B54",
"=X c #645B57",
"-X c #5E6555",
";X c #636543",
":X c #656A44",
">X c #646949",
",X c #70714F",
"<X c #66615C",
"1X c #6B635D",
"2X c #686458",
"3X c #706E55",
"4X c #73735B",
"5X c #695D61",
"6X c #6D6661",
"7X c #6E6A61",
"8X c #63666D",
"9X c #726C64",
"0X c #756E6B",
"qX c #75716B",
"wX c #7A746C",
"eX c #777464",
"rX c #7B7471",
"tX c #7E7973",
"yX c #707271",
"uX c #69706E",
"iX c #817D75",
"pX c #837E7B",
"aX c #807D6A",
"sX c #6B821B",
"dX c #6F8327",
"fX c #76862D",
"gX c #768630",
"hX c #88857A",
"jX c #8A8583",
"kX c #868982",
"lX c #918C86",
/* pixels */
"|.l.[.[.[.|.[.[.[.[.[.|.k.[.i e :X] [..XOX$X.XoX[.|.OXXXXXl G. X|.[.7 e l c l z v l z v v l k l l l z z c.v g 8 v c [.[.",
"[.l.|.[.[.[.[.|.%X|.[.k.[.v v l.=.I v P.z.P.@X.Xf l.] l w <.>.[ p c 7 e e e l v z v v v v k l v v v k.c z l.i c v c k.[.",
"c.[.[.l.k.|.[.|.XX|.v |.k.c k.[.M.F z.=._ a.B.e.R.$ -.e l r 7 5 e i k w w w w k l v |.l.l l k c v c c c c v l c k.v [.[.",
"h.[.[.v v l.|.[.|.|.|.oX|.`. X|.{.c.j.#.R ;.f.P &.^ _.k l _.i x l v c g k e e 8 5 e l k k v e v z v l c l z h.#Xg.c [.|.",
"`.|.l.[.[.|. X[.|. X|.@X[.[.c.k.e.N.e.V [ T r.' -.;Xk l l e k l l l l k k 8 l e a.<.l c c l.v |.v v v v v l ` [ k OX|.c ",
"k.|.[.[.[.l.[.@X XoX|.[.v |.c.j.O.O.} I.o.S.q / c.v v v v l k k v l c k k k c e a.o.l k.c.c v h.h.l.v l.c v.9.J l |.[.c ",
"_.[.|.[.[.[.|.|.OX X[.k.[.l.j.g.T.W.F.+.U %.y.g c.v l.v [.l.k z l l l v l l.z l v XX#XA.l [.z l c.h t M.N ` v c [.l.[.l.",
"[.[.[.[.v v |.XXl.}.v .X|.i.~ R.e.m.0.Q >.(.q c v v l.l.v v v c l l c l j s.s k.#X%X6X3Xl.5 S Y V :.t A I Y c _.l.`.v l.",
"`.}.[.|.|.|. X|.OXl.z =.e.j.D | =. X`.j.G.  v k c.v l l.l.v v v l.l c l | +.:X.X=X1XiXiX&X0 Y I ' ;.} D =.Q F l v h.l.|.",
"|.XX|.|. X|. XoX|. X7.A F.~.Z %.! S.a.P.=.] x h k z l `.[.v v v l.|.|.c U X.L.oX=X9XiXiX^.A.O ( 7.H.r # y.O n U.h.`.l.l.",
"XX{.v |.+X X|.oX|.k.9.V M _ >.J.H.` Y 7.q 8.l g k l z k l c k.*X[.l.|.z ^.a.r  X*X3XiX:XK.&.; a.;., S # o 2.P < '.v l.l.",
"|.v.|.+X X X+XXXc L.1.k.gXX.o.J j U I.5 6 h x g k l l v g x f.[.[.l.l.v z z c j 0.p.^.:X=.+.a.[ o.M.) . ` L =.N.`.h.[.|.",
"|. X+X X+X Xl.l L.` J.r.(.n ` r.l r 7 U.U 9 e x k 8 v k c 1 X.;.~ 7.c z l c e e i.q.3.L 8.Y ..R.w G.A m X F w.c.l.c.|.|.",
"|.v. X X+X XXX8.@.R.! > rXpXeXwXqX9X5Xb.' 5 k e l k l l g f ;.V R.Y.j.7.:.f i v |..X}.l @ T | E.sXZ 3.V :.q.`.|.l.|.c.+X",
"+X X X|.c.v k e u.9.&.-.0XeXqX0X1X1X#X$X% :.5 e l 8 q s.c D n Q.I X.y.]  .d.p |. X$XV.$Xh.] ] : &.` u.O p.w.v v c.XX|.|.",
"].|.c.c.v Y.} k p y.A O.6X6X1X1X2X%X|.k.h 7.$ v i i w F a A.N q 2.>.p.8.T.a > l oX+X X@XoX[.] D F 9.G ` I < z z v l.|.|.",
"c ~ m.m.d.R :.$ * m.( ^ @X%X@X@X@X X|.l  XjXhX@X8 w % * f !.R.D Y.F e |.`.h E h v |. X Xp.w.W I /.z./.W Q.$ x k e k c |.",
"i 7.#. .O s.: 8 8 e l 0 }.#XoXoX}.|.c 7 6X7X6X%X8 S P 7.5 5 B R >.c c [.l.|.r r l h.OXi. .H.K o.0.XX{.N.h.8 > |.k x k k ",
"7 . 2.Y . 8 8 8 k k k k 3 c OXXXr f >.t x. Xc.c } a.B.C.v |.q.~ 7.c z c c h ~ $.%.8.V. Xl k.v l [. XXXl.w.- Q h c k 7 8 ",
"5 $ 1 < v.e e k k k 8 p r 5 c 8 w } Z L.2 4 # a P I ,.h.l.v l.v l.c k x l q ( I ..5.OX X|.}.|.|.[.[.v.z.E <.9 k l l 7 8 ",
"9 8 7 k e i l c l.8 k l l e 8 7 6 @ Q.& y 7 , 1 _ $.8.j.v v z |.c z z k e ^.1.X.R S.e.v.|.`.c.|. X[.z L R R.8 k k 7 8 8 ",
"r k 8 k k 8 8 k k k e g e c l 8 i f x z i 0 ^ r r s.0.{.l c l l l l l l p &XpX/.P.G :.( h.k.l.l.[.l.[.r } j.g e l 7 7 e ",
"h 8 k e 8 i k i k c l l v k l k l c k l k l u y.a.k l l.c v l c v l v v lXhXtX9Xw.` &.b l.v [.l.|.[.v [.[. X8 * p 7 8 e ",
"e i 8 e p i g k g l 8 l l l k v l c z c e ~ : 0.] g c l c c l v k p wXjXpXtXqX2X@X( 9.m.v.z k.`.k.k.l.l.l.l.a.D.F g 8 e ",
"e e k e e 8 k k k k l k l k l v c z c p e 7.o } K.7.l l c k l l l l.9X9X6X=X&X%X[.6 e F.^ l.v k [.l.j.l l l K Y d.0 8 i ",
"e g e g p i k 8 k e l l l l c v l k l 9 j.L.$ @.%.U.k c z z c k c c 2X1X=X=X@X Xj ].Y.R D l c.l e : I S.V.w 8.j 6 8 e e ",
"e e 8 8 g k 8 l l k v |.k k l k e 8 7 ! | U ~ N R w.i c z c l k l p %X=X@X.X X'.7.I.s., V U ~ % 3.fX ..., Y.! g h 7 k k ",
"e g k e k k l l c l l c e |.v |.[.v % E X.o.^ Y./ k d a.k v v v l c l. XoXl.p e L | E L >. .} >  .&.&.o.>.A U ; x 8 8 g ",
"g k k k k k k l l l 8 c }.j.7.v.[.k.S D L T ; 2.] w.w % w.c z c z k 8 l l e 5 @ , P.V +.W.p.d w M.D.,.~ gX` J.= 8 8 e k ",
"l g k k k l l l l l 8 v w.y.R ] l r Z F ! J.; U.Q f F.A.e.k k k c k e 5 7 4 4 w g h.D N.k.l.c z / #.R 1.' 4.T S % e 8 e ",
"k c k l k k l l l i c c l N M *.Y ; h q E I =.q ) ] F.Y ~.y.f.8 ! 7.t.0 4 7 8 8 z v z l.v c.v c.l.e.d.Y R Y U I E e e k ",
"k x l l l c v v p i c k.~ ' ` R R u.[.8.m ;._ 1 g.] E P 7.L.] 8 Q 0.M D.t ^.j x c c v c.[.l.c.v |.|.{.H.E Y ; ,.; 6 8 k ",
"e y e e k g 8 8 8 w 0 t M P Q   [ T 0.9.c 0.b H } %.| X.j e c z  Xx.Q =.] X.] l c z c.l.v c.v l.c.c.z v j s.c.8.h x 8 8 ",
"5 7 i i 8 k e g c.l B S L Z D t r Y A ( I.J.] :.u.W.R E Z.h.l.c.l c.l c.) o.b h l l z c.v z `. Xv l.c.v c.v +X|.z l v 8 ",
"a v c v c k c c x.p.I <.H.< U.w.7.I X.:.$.U <.X.A b.a.0.z l.c.v v k.l.c.! + Z.g l l z l k k z v l.v v z z c.|.v [.k k 8 ",
"l c l c z c.v v l.7.T / j.v h ~. .$.3.y.[ !.<. .,.^._.`.|.v c c c v v l S.X.R.F e.v.l q * |.c z v v l c v v v c.[.c 7 k ",
"k c k e l k z z l.z z k.v j h % Y.m [ R >.X.! A.5.e.l l.z v l l l 8 k k T Z ` ..@.Q.p :X[ 8 a 8 k l l v k.l l.c l.c 8 k ",
"c x p k z c k k k l.z }.l.q > ; d t R R J.F ] ! C ^ k l k c k c c x x v h q r o.Y O jXkXkX-X8.L.z z z v l.z c l.|.l e k ",
"p y k k k k k k l l c &XyX2Xn &.,.! =.B L.X.R n ` 8.h c x v k v e c l [.j.-.M [ h.V.uXyXuX>X-.I j ].v z l v v v l l y k ",
"8 y e k l k e k k k p %X-X~.b I ) W. .] dX;.[ ! P D t _.g l k g 7 c [.v F 1.P r - w 8X<X-X;X] V f v v z v z v l y 8 k g ",
"y k g k k k i k g e i w 8.q H.=.= ~.;.X _ $.q g ) Y ~.a.h.k k c k v |.z h S.! S.M.` c n.F.Q.A.Y.^ k v z v l.v c k 8 e e ",
"e 8 i e e e k p e g i 5 C 7.# ,XhXhX4X{ Y R Q f r 1 Y I N.l g y v k c v c j.g.l ^.R q dX+...L { F.v c l l.c v l k 7 8 e ",
"e e w i 7 e e 8 v 8 7 8 w.wXjXhXtXqX2X#XS.E.Y 9.0 y w.y.g l k z v v k l v z l v l !.U dX` dX` 7.k k z c c  Xv i i i 7 8 ",
"5 8 6 e 8 e 5 5 7 7 8 k @X0X0X9X9X<X@XoXr ( C ] p l 6 l x k c z v l k c z z v c c H.&.~ S.sX| b j _.k z z v v l 8 8 v v ",
"l.y 5 i 5 , A.7.y i x j XX1X6X1X=X=X.Xc.e G.W 7.0 l e i k l k z l c.|.l l v l.z h 0 > o :.&.R V e c l z v v c i 7 c }.|.",
"[.|.l y f <.P J # & 7 q 0.*X2X*X*X#X}.0.Q F i.u.7.k k g k k l k k k c l l v c v v c r Q 1.m sX7.k l l k l.k.x i c OX[.|.",
"`.[.l.[.c N V G y.:.y.F.-.v.@X@XoX}.s.*.Z O ; L =.O k k l k l c l l z l l l k z v k.c ! L.> 7.0 c l v l.v OXl 8 c [.l.[.",
"}.`.[.c 0 e.@ . F.I /.R J.l c k.l k 9 + C V W + N S h k k k l l l k k l k l.z k c l l p a.P y.l l z l v l v c 7 c v v v ",
"l c v v v c $ Q 4.gXb B   2 5 5 > ^ P R.- 9 0 O , e h l 7 k k l v l c l l 7 k l l k c e y./ j.l l p p v c v k p 4 z v v ",
"k.7 v [.i s 9 $.X.&.Y Y ` R @ # , y.D.U =.7.> ! F L i l k e i k v l z k l k z k c l z z z 9.9.y.a l c l v l l k 7 c c 8 ",
"p l.[.v c [.#XC @.Q.@.Z E.| :.0.).i 9   ( > } y.;. .q l l k k g l c k k l l k l z k z x z S.U y.p l p l k.l l k a t s c ",
"a k.l.v }.l.l s e.$ t =.;.*.F.h c c x x 0 h i l E.V , x k l k |.k l k l l z k k k k k k 8 m.7.s.k k l l l l h.j f ] 0.a ",
"[.[.[.[.k.[.[.v l.z.q.0.q.] ~ p c c v `.l l v v f r w w e c l l l k l l z k c x l h x k k g g % e w.r ^.a t Y.o.!.y.q i ",
"k.XXc [.k.[.|.k.c [.v y 8 $ l.v c c v v c v _.v `.c l 7 9XtXwX}.k g l a 7 Q Q 6 x k h k k k y } 9.N @.P /.M ~.,.C.v l.p ",
"v {.[.[.k.[.OX|.[.[.k.e.( E j.l v v v v k.[.[.[.k.[.l.oX%X*X@XoX^.[ % ,.P <.J.7.i.} 8 8 6 7 8 8 & m I F ; F.l v _.c p i ",
"k.`.v [.}.[.|.}.[.}.c 7.M A p.x.`.v |.v [.[.[. X[.[.l.k.z.|.[.v < o > T [ m X.L g 8 8 7 8 g z v e & h 9.R Z j v l i i _.",
"c }.`.v [.[.[.}.[.}.[.w.V @.< c v v c [.[.[.[.oX|.oX[.l c c c p |.c 2 7.7.L E [ 0 4 y l z v v v c 5 6 - { U 9 x g 7 v v ",
"}.`.[.k.k.v v [.|.|.}.l w.t l k.c.k.c `.v [.k.|. X|.}.i 7 7 7 l l.[.v y 8 0 0 > e l l v z c v v l x k l d w.5 e e v k.[.",
"}.`.[.[.[.[.c [.[.[.@X|.v y v v v l.[.[.[.v [.+X X@X|.oXv l k. X|.v _.c 7 4 l c l l v z c k l k k c z c c v i l v c [.[.",
"l.c [.[.|.|.k.l.[.[.[.oXc x v l.|.v |.|.+X|.l.v +X+X|.+XOX|.oXoX X|.l.l k k x z x z x z z z c k k z v v v v i 8 c v v [."
};
