/* XPM */
static char *New_Project__1_1675874785[] = {
/* columns rows colors chars-per-pixel */
"60 60 133 2 ",
"   c #423733",
".  c #433834",
"X  c #443935",
"o  c #413632",
"O  c #453A36",
"+  c #483D39",
"@  c #473C38",
"#  c #463C3A",
"$  c #443A38",
"%  c #413735",
"&  c #3E3432",
"*  c #3F3533",
"=  c #423836",
"-  c #453B39",
";  c #473D3B",
":  c #3D3331",
">  c #3A302E",
",  c #433A2D",
"<  c #433938",
"1  c #3D322E",
"2  c #3E332F",
"3  c #403531",
"4  c #463B37",
"5  c #403634",
"6  c #4A403E",
"7  c #433937",
"8  c #453C2F",
"9  c #3F3534",
"0  c #3E3433",
"q  c #3B302C",
"w  c #3F3430",
"e  c #493F3D",
"r  c #382E2C",
"t  c #392F2D",
"y  c #42392C",
"u  c #3C3231",
"i  c #3B3130",
"p  c #483E3C",
"a  c #372D2B",
"s  c #443B2E",
"d  c #41382B",
"f  c #3B312F",
"g  c #463931",
"h  c #453830",
"j  c #403436",
"k  c #4B403C",
"l  c #3C3230",
"z  c #493C34",
"x  c #483B33",
"c  c #433739",
"v  c #423638",
"b  c #3C312D",
"n  c #392E2A",
"m  c #4A3F3B",
"M  c #493B3A",
"N  c #4B3D3C",
"B  c #493D41",
"V  c #514642",
"C  c #504541",
"Z  c #493E3A",
"A  c #463837",
"S  c #3A2F2B",
"D  c #372C28",
"F  c #534844",
"G  c #524743",
"H  c #4C4042",
"J  c #382D29",
"K  c #4D423E",
"L  c #4C413D",
"P  c #342A28",
"I  c #4E403F",
"U  c #534544",
"Y  c #54484A",
"T  c #514547",
"R  c #332927",
"E  c #362C2A",
"W  c #554641",
"Q  c #594A45",
"!  c #584D4B",
"~  c #534846",
"^  c #53443F",
"/  c #584944",
"(  c #564B49",
")  c #504543",
"_  c #4E4037",
"`  c #53453C",
"'  c #4E433F",
"]  c #4A3C33",
"[  c #4F4138",
"{  c #3D342F",
"}  c #3E3530",
"|  c #413833",
" . c #3F3631",
".. c #433A35",
"X. c #483F3A",
"o. c #423934",
"O. c #39302B",
"+. c #3F3832",
"@. c #413A34",
"#. c #3E3731",
"$. c #3D3630",
"%. c #403732",
"&. c #453C37",
"*. c #473E39",
"=. c #443B36",
"-. c #4F4440",
";. c #3C332E",
":. c #3B342E",
">. c #352A26",
",. c #3A332D",
"<. c #3B322D",
"1. c #403933",
"2. c #38312B",
"3. c #3A312C",
"4. c #362B27",
"5. c #372E29",
"6. c #463D38",
"7. c #382F2A",
"8. c #40322F",
"9. c #3F312E",
"0. c #413330",
"q. c #433532",
"w. c #423431",
"e. c #453734",
"r. c #463835",
"t. c #443633",
"y. c #362D28",
"u. c #473936",
"i. c #4D3F3C",
"p. c #544945",
"a. c #564B47",
"s. c #493B38",
"d. c #483A37",
/* pixels */
"      . X . . o . . . X X X X X X . . . O + + O       O X X O O O O O @ # # $ % & * = - - - ; - # - - : > * $ , , , < < ",
"1 2 1 3 O O O   . . . . . X X X X O O X O O . o o o . o o X @ @ @ O O 4 - - $ = 5 % $ - - - ; ; 6 - - > > = 7 8 8 , 9 0 ",
"1 1 q 2 . O O . . . . . . . X X X X X X O X o 2 w w       X @ @ 4 X X O $ $ $ 7 7 - ; ; ; - - - e 7 7 r t % = 8 8 y u i ",
"  o 2 1 3     . . . . . . . . X X . . O @ + O o o o   @ O X O O X . . O 7 7 7 7 7 # e p p # = 7 7 & & a t * % s s d u u ",
". . o w 1 3 3 X . . . . . . . . . O O X O @ + 4 X X . @ X X 4 4 4 O X . = = % * * 7 ; p p ; = 7 & t t t f * - g g h j j ",
"o   . 3 1 3 3 4 . . . . . . . . . O O o 2 o X O X X .     X + + k + X o = = * l > * - p p p $ $ l r r l & % e z z x c v ",
"  X .   o 2 2 q 4 X X O O O o 1 b n n . m + O O O O X . w 2 X X @ 4 O 4 $ $ 7 = = * & = = ; % $ l a a % ; - $ M M N B B ",
"  X .   o 2 2 q 4 X X O O O o 1 b n n . m + O O O O X . w 2 X X @ 4 O 4 $ $ 7 = = * & = = ; % $ l a a % ; - $ M M N B B ",
". . o 3 3 2 2 b q q 1 o o . o 1 q b b + V C k + + + @ X 3 w . . 4 4 4 Z $ $ = % % 5 * 5 5 7 7 - : t t 5 7 * * A A M B B ",
"O X   o o o o w b S S 1 1 2 b n D 1 1 Z F G k 4 O O X X 3 w o o . . 4 m - - = 5 % 7 = 5 5 5 % * > > > = $ % % A A N H H ",
"X X   o . . . o . 3 1 q q J D D n 1 1 4 K L 4   3 3 3 o w w 3 3 3 3 . + $ $ = 5 % = = 5 5 * 5 > P r r = # # # I I U Y T ",
"3 o 3 3 o o o 3   3 2 b b n J b o 3 3 X 4 O   o       3 3 o o o 3 w o X % % % 5 * 5 % % % 5 = t R E E & $ ; ; W W Q ! ~ ",
"w 3 3 3 o 3 3 w 1 2 3 3 3 1 q 2         o 3 3   O O 4 o   . . . o 3 w 3 5 5 5 5 5 = $ - - $ * r E a a t % ; # ^ ^ / ( ) ",
"w 3 3 3 o 3 3 w 1 2 3 3 3 1 q 2         o 3 3   O O 4 o   . . . o 3 w 3 5 5 5 5 5 = $ - - $ * r E a a t % ; # ^ ^ / ( ) ",
"3 o 3 3 o 3 3 w 2 2 3     o w 1 2 o o o 3 w 2 3 X X @ . X X X X   w 1 b & & & & 5 - e p p $ t > & : : r * p ; _ _ ` G ' ",
"3 w 2 1 2 2 2 1 3 w w     X   w 1     . . 3 2 1 o o 4 X X X     3 2 q n > > t t : $ e # # 5 r * e $ $ t l # # ] ] [ C ' ",
"{ { { { { } } } | |  . . ...X.o.O.+.+.@.#.$.o.%.} } &.*.&.=.=.=.O X o 2 2 2   .   o   2 2 J 3 + m + + . S n X + + k ' -.",
"{ ;.;.{ }  . . .%.| %. . .| =...} :.:.$.$.$.o.=.....=.=...o.....X X   3 3 3 X 4 . o w q q >.b O + X X 3 2 b 1 4 4 Z k k ",
"{ { { }  .%.%.|  .%.%.%.%. .| ..=.$.$.,.<.<.;.| ....%.....X O O O O O O o o X O   w 2 b b n b O m O O o O O q o o X + m ",
"{ { { }  .%.%.|  .%.%.%.%. .| ..=.$.$.,.<.<.;.| ....%.....X O O O O O O o o X O   w 2 b b n b O m O O o O O q o o X + m ",
"}  . .%.%.%.%.%.%. .%.| | %.%...*.1.1.2.3.;.O.<.| | %. .%.  . . . . X X X X O X o w w 2 2 b 3 O L m m O m m 2 q q w O k ",
" .| o.o.| %.%. .| %.%.| | | %.o.&.o.o.O.;...{ 3.%.%.=.| o.X O O X X X X 4 4 4 O X . o 1 1 n   X L K K 4 4 +   S S b o + ",
" .| o.| %. . .{ %.%.%. . .%.| o...%.%.;.| *.o.3.3.3. .%.|   . .   o 3 w 3 3   O @ @ X 2 2 S . X m K K + X O @ 3 3 1 1 . ",
"} }  . .} } } { { %.%.{ { ;. .o.| ;.;.%.o...o.{ 3.3.;.b b b b b 1 q J 4.q q w . O X   o o o . @ Z m m m O O k Z Z o 1 o ",
";.;.;.;.{ } } } 3. .%.3.3.O.} o.| 5.5.| %.{ ..6........     . . X   2 q 2 2 o X   2 1 o o 4   + @ 4 4 Z @ O m ' ' O 3 X ",
";.;.;.;.{ } } } 3. .%.3.3.O.} o.| 5.5.| %.{ ..6........     . . X   2 q 2 2 o X   2 1 o o 4   + @ 4 4 Z @ O m ' ' O 3 X ",
"3.<.{ }  . . .%. .;.3.3.3.<.{ %.o.<.<.;...o...*.X X O .   . X X O X o w q q O +     m k k 4 X O 4 4 4 4 + Z m + + 4 + b ",
"7.3.;.}  . . .} | ;.O.<.<. .| | %.<.<.{ ..o...*.4 4 @ . . .     3 w w w 2 2 2 b 2 O k m m 4 + @ @ @ @ @ + + + @ @ 4 @ n ",
"3.;. .o...| |  .%.{ ;.} } | | | | ;.;.;.o.| . @ O O @ . X . o o 8.9.0.q.    S J w @ + @ @ + @ 4 4 4 4 @ + + + + + + @ n ",
"} { %...=.o.o. .;.;.} %.%.%.} %.&.<.<.<.| | . O o o .   X X     w.w.q.e.    w 3 O 4 . O O m 4 4 @ + + 4 X X O @ @ Z Z b ",
"{ <.;. .%. . .{ { 3.<. . .%.} %...S S S   . . O 3 3     . r.r.r.e.t.t.t.    X @ @ O . X X + @ Z k k k @ o 3   X X @ Z w ",
"<.3.<.{  . . .} | O.y.{ { ..o. . .S S S o . X O o o X   . e.e.e.t.t.q.q.. . O O X O 4 O O . O 4 m K K Z X . 4     X 4   ",
"<.3.<.{  . . .} | O.y.{ { ..o. . .S S S o . X O o o X   . e.e.e.t.t.q.q.. . O O X O 4 O O . O 4 m K K Z X . 4     X 4   ",
"{ { {  .%.%.%.%.o.<.3.%.%.=.| } } b b q o     . w w . t.e.e.q.q.0.w.t.u.X X . . . O 4 X X . X . 4 k k k + @ m 4 4 O 4 O ",
" . . . . . . . . .} o.6.6...;.;.%.w w b 3 3 w w b b 3 t.e.e.w.w.9.0.u.i.O O . X O . o . . 4 + X X + + m + 4 4 K K Z + @ ",
"%. . .%.%. . .} } } %.o.o.%.{ <.<.1 1 q S J n 2 2 2 >.1 2 J D D   @ .   . . .   . X X X X . X X . 4 4 m Z Z C F F G V ' ",
" . . . . . . . .%. .%.| | %.} { } 3 3 S S 2 o .     b b 2 b b b   O .   . . . . . X X X X . O O X O O @ 4 m p.C C C G C ",
"w 3 3 3 3 3 3 o   3 3 o o o 3 3 o o o J S   4 4 O O   o o X O O X 4 @ O X X . . X X X X X . w     . . O O k a.G G G F V ",
"w 3 3 3 3 3 3 o   3 3 o o o 3 3 o o o J S   4 4 O O   o o X O O X 4 @ O X X . . X X X X X . w     . . O O k a.G G G F V ",
"3 o o 3 3 3 3 o o w w o o o o o   3 3 q 1 X 4 4 @ @ 4 4 . @ + + X 4 m @ X X X X X X X . . . 1 o . X X O . 4 ' V V -.K L ",
"    o 3 3 3 3 o w 2 2 3 3 o o 3 o     3   X . 4 Z Z + @ o . X X 3 . @ X X X . X X X X . .   X O .     X   o O + + 4 O 4 ",
"  3 w w 3 3 3 3 w 1 1 w w o 3 3 3     o     3 . 4 4 X 4   o       . X   . . . . X X .     3 X . 1 b b 3 o o . 4 4 4 4 + ",
"o 2 1 2 3 3 3 w o 2 b 2 2 3 3 3 o     1 1 3 3 o     o O O X 4 4 Z 4 . X . . . . . . . o o w 3 3 q S S 3 . X 4 4 4 m k m ",
"w q q 1 3 3 3 w   2 b 1 1 w 3 o   O O S n   O   o o o   @ + m m ' + o X       . . .   3 3 w . X o o o O @ O 4 o o @ + O ",
"w q q 1 3 3 3 w   2 b 1 1 w 3 o   O O S n   O   o o o   @ + m m ' + o X       . . .   3 3 w . X o o o O @ O 4 o o @ + O ",
"o 3 1 S n b b w 3 3 o o o o       X X q q o .   o o 2 w m L     2 O m + X X X . . . X X X O X O 4 O O X X 4 @ 4 4 4 4 O ",
"o o o 3 w 1 1 b q b 1 2 2 2 w w w 3 3 b 2   3 2 3 3 3     . . . o w o X O O O X . X O @ @ + O O X . . . . X O O O O O 4 ",
"o o . O X 3 3 b 1 1 1 1 1 1 b b q 1 1 J q 3 3 o . . . X 3 w . . . 3 3 X O O X . . X 4 + + m + 4 O X X X X X X . . X O O ",
". o   O 4 . . o 3 3 w w w w w w 3 3 3 J 4.b o O 4 4   o .   o o   4 @ 4 . . .     . O 4 4 @ + 4 O O O O O .       . X O ",
"r.t.t.e.r.r.r.r.q.w.0.0.0.w.e.u.s.@ @ 2 S b w . X X w w   . o o o X + Z . . . . . . X X X X X X . X X X . o 2       . X ",
"e.r.r.r.e.e.e.r.r.t.q.0.0.0.w.t.e.X X o o 3 1 w . . . .   . O O . 3 X k X X X X O O X . . . . . X O O O . o 3 . .   o . ",
"e.r.r.r.e.e.e.r.r.t.q.0.0.0.w.t.e.X X o o 3 1 w . . . .   . O O . 3 X k X X X X O O X . . . . . X O O O . o 3 . .   o . ",
"e.r.r.r.e.e.e.e.d.u.e.q.q.0.8.8.8.3 3 w     2 3 X X X . X 4 4 4 X   . @ O O O O X X X X X X X O 4 4 4 O X X O O O o w o ",
"r.t.t.e.r.r.r.r.e.e.e.t.t.t.q.q.q.    3 o   o . . . 2 1 @ Z     3 4 4 w O O X X . . . X X X . X O X X . . O @ 4 4 o 2 3 ",
".   . O X o o w 2   X . . . X . o <.<.O.3.} =.6.o.o.} %.| | %.%.o.=...| X X X . . . . . . . o   .       O 4 O m m X o O ",
"    . X X . . o 3 . X . .   o w q O.O.3.3.O. .&.=.=. .<.%...o.o. .%.o...o o   . X X X . . . X 4 O . .   . .   m m @ X X ",
". X     . . . 3 3   . . .   3 1 n { { %.} 7.3.o.....} y.3.} } } }  .o.=.      . . X X O O O Z m m @ @ O X X . Z Z m @ . ",
". X     . . . 3 3   . . .   3 1 n { { %.} 7.3.o.....} y.3.} } } }  .o.=.      . . X X O O O Z m m @ @ O X X . Z Z m @ . ",
"    3 o 4 @ @ X o o o o o   o w b } } | %.<.3. .%.%.} 5.y.5.3.3. ...=...4 4 X .   . O @ @ + + m m Z Z @ 4 O O + + + @ O ",
"2 2 w X k ' ' L @ . 3 3 3 o o 3 2 O.O.3.{  . . . . .| { 3.7.3.3.} | o.| X X X . . O 4 + + m X O @ @ @ 4 X . X O O X X + "
};
