/* XPM */
static char *p__1_1675876278[] = {
/* columns rows colors chars-per-pixel */
"60 60 230 2 ",
"   c None",
".  c #1D091C",
"X  c #090D11",
"o  c #260518",
"O  c #3C0B1D",
"+  c #370E04",
"@  c #16241F",
"#  c #2F2A14",
"$  c #160C21",
"%  c #1D1929",
"&  c #290B27",
"*  c #350A2D",
"=  c #2A1425",
"-  c #361827",
";  c #281F37",
":  c #3A1936",
">  c #3B0833",
",  c #173B2B",
"<  c #1D3634",
"1  c #153C32",
"2  c #2A2B2E",
"3  c #27362C",
"4  c #29273C",
"5  c #37253A",
"6  c #263636",
"7  c #373334",
"8  c #3F2C28",
"9  c #43051C",
"0  c #4A0116",
"q  c #43160B",
"w  c #780B1C",
"e  c #7B181A",
"r  c #680910",
"t  c #532504",
"y  c #792616",
"u  c #460523",
"i  c #5A0E28",
"p  c #4A1B3C",
"a  c #5B1A37",
"s  c #5A0D37",
"d  c #7C0B29",
"f  c #7E1829",
"g  c #7D0F33",
"h  c #631A31",
"j  c #6E0F31",
"k  c #492333",
"l  c #4F2831",
"z  c #782736",
"x  c #743530",
"c  c #174637",
"v  c #1C5939",
"b  c #0E472D",
"n  c #284638",
"m  c #23553B",
"M  c #2A533C",
"N  c #23593B",
"B  c #374A3C",
"V  c #414F2E",
"C  c #3E1944",
"Z  c #303741",
"A  c #4B1D44",
"S  c #571F46",
"D  c #791C48",
"F  c #472646",
"G  c #55254A",
"H  c #572947",
"J  c #4B334D",
"K  c #6A284F",
"L  c #6B1866",
"P  c #7E276C",
"I  c #1A5443",
"U  c #255544",
"Y  c #2B5342",
"T  c #255947",
"R  c #355948",
"E  c #2F4847",
"W  c #366456",
"Q  c #286047",
"!  c #415D4F",
"~  c #724A4B",
"^  c #466659",
"/  c #486E61",
"(  c #6C7F6B",
")  c #840A19",
"_  c #9A1218",
"`  c #8F1B00",
"'  c #A2151D",
"]  c #89261C",
"[  c #952B1D",
"{  c #9B311B",
"}  c #A7231F",
"|  c #85072A",
" . c #970928",
".. c #871027",
"X. c #971A29",
"o. c #850A38",
"O. c #9A0933",
"+. c #8B1133",
"@. c #8C1438",
"#. c #991731",
"$. c #A70D25",
"%. c #A8172A",
"&. c #B41728",
"*. c #AA0D3A",
"=. c #A51839",
"-. c #B3133D",
";. c #BA1A38",
":. c #B20A32",
">. c #8B2727",
",. c #992B29",
"<. c #953422",
"1. c #993429",
"2. c #9D2936",
"3. c #983539",
"4. c #893F30",
"5. c #AE2527",
"6. c #B92829",
"7. c #A23128",
"8. c #A23126",
"9. c #AC2439",
"0. c #B52736",
"q. c #A43637",
"w. c #B13938",
"e. c #CA1A29",
"r. c #D1152F",
"t. c #C5232A",
"y. c #CA2825",
"u. c #C42638",
"i. c #D8272D",
"p. c #F12F2D",
"a. c #9F4230",
"s. c #B74736",
"d. c #B24A32",
"f. c #D05C1F",
"g. c #C1463E",
"h. c #851643",
"j. c #950F44",
"k. c #A90B41",
"l. c #BA0942",
"z. c #A43A49",
"x. c #B13044",
"c. c #871F6C",
"v. c #9A2A76",
"b. c #E01459",
"n. c #CF2B4C",
"m. c #9A5B4B",
"M. c #99465C",
"N. c #B84E48",
"B. c #955267",
"V. c #8F4F6D",
"C. c #AC576E",
"Z. c #866B68",
"A. c #B86A66",
"S. c #BB777B",
"D. c #BC756D",
"F. c #CB4D4B",
"G. c #F1515B",
"H. c #D86459",
"J. c #CA6C44",
"K. c #F87358",
"L. c #D75867",
"P. c #E45864",
"I. c #F85D62",
"U. c #F55C70",
"Y. c #C6726B",
"T. c #C77A71",
"R. c #D37070",
"E. c #E67C6C",
"W. c #698471",
"Q. c #FF913D",
"!. c #F5BE2E",
"~. c #8E8878",
"^. c #CB9454",
"/. c #FF895B",
"(. c #F09F43",
"). c #C98875",
"_. c #FC8368",
"`. c #FA976A",
"'. c #EC9871",
"]. c #D0A86D",
"[. c #FFB36A",
"{. c #CCB04D",
"}. c #ECD343",
"|. c #F6E174",
" X c #D77184",
".X c #749C81",
"XX c #83878C",
"oX c #9C8D92",
"OX c #AE8C91",
"+X c #9DB38F",
"@X c #D08C8D",
"#X c #F79193",
"$X c #CAA395",
"%X c #D6AF9B",
"&X c #FFA484",
"*X c #FFAA8C",
"=X c #FBA788",
"-X c #F9B184",
";X c #FFA694",
":X c #F2B08F",
">X c #DBBAA5",
",X c #E6B4A5",
"<X c #F6B5A7",
"1X c #F3B4B8",
"2X c #A1C1B2",
"3X c #FAC593",
"4X c #FFEE8C",
"5X c #CBC1AA",
"6X c #FCC8A9",
"7X c #F6C7B5",
"8X c #E9D9BB",
"9X c #F7D4BB",
"0X c #EFCDB4",
"qX c #FBE7BA",
"wX c #E9E4BE",
"eX c #CFDCD3",
"rX c #F9CDC5",
"tX c #FED3C5",
"yX c #FDDCCA",
"uX c #F9DBC7",
"iX c #F9D3D1",
"pX c #FDE5C4",
"aX c #FDE2CB",
"sX c #F6E8C9",
"dX c #FFF6CD",
"fX c #FEE3D3",
"gX c #FCE8D1",
"hX c #FFF4D5",
"jX c #ECE9CA",
"kX c #FFF5E3",
/* pixels */
"                                                                                                                        ",
"                                                                                                                        ",
"                                                                                                                        ",
"                                                                                                                        ",
"                                                                                                                        ",
"                                                                                                                        ",
"                                                                                                                        ",
"                                                                                                                        ",
"                                                                                                                        ",
"                                                        F                                                               ",
"                                                        G a F                                                           ",
"                                                  A.B.H G G 5 H A                                                       ",
"                                                  S.V.H G A A p k                                                       ",
"                                                  Y.B.J S c.L C C p : $                                                 ",
"                                                  S.V.K v.c.L C & = . $                                                 ",
"                                                    z  X;X-X).A 0 & %                                                   ",
"                                                      1X'.<X`._ _.                                                      ",
"                                                      ,X_.F.1.a.{ {.                                                    ",
"                                                      a.).dX{ w.>.      >.w                                             ",
"                                                    ~._.D.F.] y } ] + +.e                                               ",
"                                                  j d.s.] 1.] { 7.4.L.0 K.                                              ",
"                                                   .J.[ 1.8.8.3.1.]  XH.                                                ",
"                                                  5.d.<.s.8.1.] 1.R.#Xp.i.0.                                            ",
"                                                  F.1.{ 1.1.<.2.N.*X3X' y.t.                                            ",
"                                                T.) ,.{ 3.1.,.>.;X-Xd.5.y.r.                                            ",
"                                                g.) w.+.a.>.q.-X6XpXr.6.i.6.                                            ",
"                                              0.) 0.d.1X>.a.$XgXpX#X` 0.t.0.z.                                          ",
"                                            h d g  .Y.rXuX3.yXpXpX`.Q.$.t.i.u.                                          ",
"                                      2X@X2.@.w d ,.>XuX8XgXuXsXwXI.;.  $.e.5.x.                                        ",
"                                      |.&X9.d d w n.8XhXhXdX9XuXtXe.&.    _ u.e.*.                                      ",
"                                    fXkX7XE. .d e U.jXpXdXgXjXtXyX(./.N.  _ 6.u.&.#.                                    ",
"                                    T.m.hX).r o.;.tX:XpXgXgXsXuX<XK.$. .    0.&.-.e.L.                                  ",
"                                    $X,X~ iXJ...-.fX=X:XfXaXsX7X9Xb.6. .    -.&.;.&.&.                                  ",
"                              9X>X,X5Xm.C.9X  P.i.sX:X6XuXuXyX0X9XP.[.%.    %._ f.!.}.                                  ",
"                            Z.        rX      I.1.9XrX9X9XtX9X9XuX`./.2.  E H.>XpXuXwX                                  ",
"                            $X    XX          I.x 0 7X7XrX7X0X,XOXK :.%.    z 7X6XrX0XeX                                ",
"                              oXoX            3.Q n l + t t + q x 8 V =.$.  I S.&X'.&X                                  ",
"                                            L.8 E v , # ^.].4X3 6 b v %.#.  N n *X=X=X                                  ",
"                                            G.T n M v , 6 6 6 b c v Y *.=.l.  ;X*X-X;X                                  ",
"                                            n./ B m M , 6 3 6 , b T M n *.+.O.    ^ T fXC.+X                            ",
"                                            x.^ ! N Y 1 2 9 9 , n v m c *.@.@.    W.gX X$XW.                            ",
"                                          n.O.W W Y Y 1 0 u u 9 c U M R @.O.| k.      XX.X                              ",
"                                          n.O.T T M Y @ - 9 i i 3 T M U p =.d k.                                        ",
"                                          l.o.4 U 1 - i | | | | | 6 T < < h.o.j                                         ",
"                                            h.F p S 4 : a h a a k < < k a   o.                                          ",
"                                            D 5 H F ;   6 Z 6 4 @ ; 2 4.e   h.                                          ",
"                                              - % & o       2 5 2 4 @ 2.M.  D                                           ",
"                                              % % * -                 z.z.                                              ",
"                                            X X Z.> o                 A.3.                                              ",
"                                          ! l M.o * &                   x                                               ",
"                                          a u * & : .                                                                   ",
"                                                                                                                        ",
"                                                                                                                        ",
"                                                                                                                        ",
"                                                                                                                        ",
"                                                                                                                        ",
"                                                                                                                        ",
"                                                                                                                        ",
"                                                                                                                        ",
"                                                                                                                        "
};
