/* XPM */
static char *p2__1_1675991563[] = {
/* columns rows colors chars-per-pixel */
"59 59 235 2 ",
"   c None",
".  c #030207",
"X  c #0A041D",
"o  c #180517",
"O  c #0E1618",
"+  c #270207",
"@  c #3E1603",
"#  c #25041E",
"$  c #3E0114",
"%  c #370619",
"&  c #340000",
"*  c #072219",
"=  c #2B250C",
"-  c #1A0A24",
";  c #171529",
":  c #1C1937",
">  c #280425",
",  c #34022A",
"<  c #2B1123",
"1  c #3A112A",
"2  c #370832",
"3  c #2B1C32",
"4  c #33173A",
"5  c #1C2E2A",
"6  c #0C3928",
"7  c #183B2C",
"8  c #1E2D34",
"9  c #0B3D32",
"0  c #183431",
"q  c #24292B",
"w  c #262737",
"e  c #3B2139",
"r  c #263735",
"t  c #353027",
"y  c #47030D",
"u  c #44011A",
"i  c #451C02",
"p  c #7A0716",
"a  c #720A0F",
"s  c #5F2200",
"d  c #7A210E",
"f  c #590523",
"g  c #471A2D",
"h  c #5D142C",
"j  c #4A183B",
"k  c #581535",
"l  c #4E0031",
"z  c #6B0728",
"x  c #7C0627",
"c  c #63132D",
"v  c #7A112F",
"b  c #472527",
"n  c #552D35",
"m  c #742F2C",
"M  c #074629",
"N  c #1A5738",
"B  c #104D34",
"V  c #26493A",
"C  c #24523E",
"Z  c #265235",
"A  c #3D4733",
"S  c #3C1242",
"D  c #3F2143",
"F  c #481944",
"G  c #561A45",
"H  c #761744",
"J  c #562349",
"K  c #482A4B",
"L  c #673551",
"P  c #6B1166",
"I  c #7F226C",
"U  c #1C5643",
"Y  c #114F41",
"T  c #225442",
"R  c #265946",
"E  c #3B5849",
"W  c #2F464D",
"Q  c #336455",
"!  c #236045",
"~  c #7A534B",
"^  c #446658",
"/  c #466F61",
"(  c #9E0B0C",
")  c #850419",
"_  c #990719",
"`  c #8A1D15",
"'  c #8C0B06",
"]  c #A6081B",
"[  c #B2061F",
"{  c #A81D19",
"}  c #B3141A",
"|  c #8A2318",
" . c #992919",
".. c #99331A",
"X. c #872F15",
"o. c #AE2E1F",
"O. c #830424",
"+. c #880429",
"@. c #98072A",
"#. c #991B28",
"$. c #890733",
"%. c #9A0432",
"&. c #8E1A30",
"*. c #A50727",
"=. c #B40C28",
"-. c #AA1423",
";. c #B81626",
":. c #A80839",
">. c #B8093A",
",. c #A81B34",
"<. c #B8153C",
"1. c #9B2C23",
"2. c #992828",
"3. c #983129",
"4. c #9A2C38",
"5. c #923A39",
"6. c #8A2724",
"7. c #A32D22",
"8. c #AF2523",
"9. c #B72428",
"0. c #A1372B",
"q. c #A52737",
"w. c #B72436",
"e. c #A73537",
"r. c #B33A34",
"t. c #CA1B25",
"y. c #C61326",
"u. c #C71634",
"i. c #D31126",
"p. c #C62224",
"a. c #C42333",
"s. c #D92A30",
"d. c #F12B29",
"f. c #B3421B",
"g. c #BA4A34",
"h. c #AC4834",
"j. c #D15C19",
"k. c #C2443C",
"l. c #CC753F",
"z. c #8A0744",
"x. c #851241",
"c. c #B30340",
"v. c #A53747",
"b. c #B22C42",
"n. c #88196C",
"m. c #9B2577",
"M. c #C41A4E",
"N. c #E10C58",
"B. c #D52752",
"V. c #CC2D47",
"C. c #9B5A49",
"Z. c #9A445C",
"A. c #B94D47",
"S. c #965167",
"D. c #904E6E",
"F. c #AD566F",
"G. c #876B68",
"H. c #B96A66",
"J. c #BB7772",
"K. c #CC4C4A",
"L. c #F2505B",
"P. c #D96458",
"I. c #C96345",
"U. c #F87358",
"Y. c #D85866",
"T. c #E55764",
"R. c #F85D62",
"E. c #F55C70",
"W. c #C7736B",
"Q. c #C57975",
"!. c #D47071",
"~. c #E77D6C",
"^. c #6B836F",
"/. c #FF923A",
"(. c #F5BF2A",
"). c #90897A",
"_. c #FF8A5A",
"`. c #F0A041",
"'. c #CA8976",
"]. c #FB8265",
"[. c #FA986A",
"{. c #F68E6D",
"}. c #F5A474",
"|. c #CEA559",
" X c #ECD441",
".X c #FFC065",
"XX c #F6E275",
"oX c #D87285",
"OX c #759D82",
"+X c #84888D",
"@X c #9D8E93",
"#X c #AF8D92",
"$X c #9EB490",
"%X c #D18D8E",
"&X c #F79294",
"*X c #C9A598",
"=X c #D1A597",
"-X c #DDB89D",
";X c #FEAA85",
":X c #FFAB8D",
">X c #FCA589",
",X c #F9B285",
"<X c #FFA795",
"1X c #F2B190",
"2X c #DCBBA6",
"3X c #E7B5A6",
"4X c #F6B6A8",
"5X c #F4B5B9",
"6X c #A3C2B4",
"7X c #FAC694",
"8X c #FFEE8D",
"9X c #CCC2AB",
"0X c #FCC9AA",
"qX c #F7C7B6",
"wX c #EADABC",
"eX c #F5D5B9",
"rX c #EFCEB5",
"tX c #FBE8BB",
"yX c #EAE5BF",
"uX c #D1DED4",
"iX c #F7CCC6",
"pX c #FED3C4",
"aX c #FDDDCB",
"sX c #F8DBC7",
"dX c #FFDCD4",
"fX c #F6CECF",
"gX c #FEE2C5",
"hX c #FDE3CC",
"jX c #F7E8CA",
"kX c #FFF6CE",
"lX c #FEE4D4",
"zX c #FCE9D2",
"xX c #FFF4D6",
"cX c #ECEACB",
"vX c #FFF5E4",
/* pixels */
"                                                                                                                      ",
"                                                                                                                      ",
"                                                                                                                      ",
"                                                                                                                      ",
"                                                                                                                      ",
"                                                                                                                      ",
"                                                                                                                      ",
"                                                                                                                      ",
"                                                                                                                      ",
"                                                            F                                                         ",
"                                                        F G J                                                         ",
"                                                    j j e J J J S.H.                                                  ",
"                                                    j j j K K J D.J.                                                  ",
"                                              X g j 4 S P n.k K D.H.                                                  ",
"                                              X o - - F P n.m.L D.oX                                                  ",
"                                                - > y G Q.;X<XoXm                                                     ",
"                                                    ].{ {.4X[.5X                                                      ",
"                                                  |. .f...A.].5X                                                      ",
"                                          p 6.      #.w.X.kX'.X.                                                      ",
"                                            p +.+ X.{ d | A.'.{.).                                                    ",
"                                            U.y Y.6.7. .| 0.| g.f.z                                                   ",
"                                              U.%X` 3.3.7.7.7. .I.&.                                                  ",
"                                          <.s.d.&X!.2.| 1.1.r...g.-.                                                  ",
"                                          p.p.( 7X,XA.2.0... . .7.K.                                                  ",
"                                          u.p.} g.,X<X| 1.1.3...#.' Q.                                                ",
"                                          9.s.9.i.tX0X,Xe.2.f.v r.) k.                                                ",
"                                        v.t.t.9.' &XgXzX=X5.| 5Xh.<.O.u.                                              ",
"                                        u.t.p.*./.}.kXgXhX5.pXfXW.@.x p c                                             ",
"                                      b.8.t.*.  >.R.yXjXaXhXwXjX-X7.x a @.4.%X6X                                      ",
"                                    :.u.a.(     [ i.pXsXsXkXxXxXyXV.p O.) ,.>XXX                                      ",
"                                  @.} u.;.(   v._./.aXpXcXhXjXgXcXE.a x +.~.qXvXlX                                    ",
"                                Y.y.=.=.<.    _ ] _.4XjXzXzXzXgX1XpX>.+.a %XzXC.Q.                                    ",
"                                =.;.>.;.=.    @.;.N.eXqXjXsXaX1X;XaX:.O.l.fXC.3X=X                                    ",
"                                 X(.j.( -.    -..XT.wXeXdXsXsX0X1XsXs.T.  rXS.C.9X3X3XeX                              ",
"                                tXeXjX2XP.W   ,._.[.fXiXeXpXpXeXpXpX3.R.      iX        G.                            ",
"                              uXrXfXrXqXv     -.c.m #X3XrXqXiXqXqXy m R.          +X    *X                            ",
"                                >X}.>XJ.Y   *.:.A b m @ @ i s & n B C 4.            @X@X                              ",
"                                ;X:X>XV !   @.*.N M 7 t 8X|.|.= 0 U V t Y.                                            ",
"                                >X,X>X<X  >.*.>.! N M 6 V 0 0 6 N V V E L.                                            ",
"                          $XF.lXN ^     @.$.:.V N U M 6 8 0 8 6 Z N Z / V.                                            ",
"                          ^.2XoXcX^.    $.$.:.B N N V 6 $ u q 6 T C E / b.                                            ",
"                            OXOX      c.+.%.$.W T T 9 u u u u 9 T T Q Q %.B.                                          ",
"                                      c.x c.g U V T q z f $ % O T C R R %.M.                                          ",
"                                      v $.x.9 5 N r +.O.+.O.$.f 1 6 R q $.c.                                          ",
"                                        $.  h b 0 0 g k k h k 1 3 G j j z.                                            ",
"                                        x.  p 5.r : * w 7 D r   3 F J 4 H                                             ",
"                                        H   v.4.O w 5 3 D       o > ; <                                               ",
"                                            4.e.                # > ; -                                               ",
"                                            4.J.                o 2 G.. .                                             ",
"                                            m                   # , + Z.b A                                           ",
"                                                                o 2 > , l G                                           ",
"                                                                                                                      ",
"                                                                                                                      ",
"                                                                                                                      ",
"                                                                                                                      ",
"                                                                                                                      ",
"                                                                                                                      ",
"                                                                                                                      ",
"                                                                                                                      "
};
