/* XPM */
static char *w__1_1675873249[] = {
/* columns rows colors chars-per-pixel */
"60 60 148 2 ",
"   c #2D4605",
".  c #2D4C02",
"X  c #2D4B0B",
"o  c #324D03",
"O  c #30470F",
"+  c #334C0A",
"@  c #394E0C",
"#  c #2F5201",
"$  c #2F5109",
"%  c #335303",
"&  c #395505",
"*  c #365B02",
"=  c #3A5C04",
"-  c #35530A",
";  c #3A550B",
":  c #36590A",
">  c #3C5C0B",
",  c #2B4D10",
"<  c #324611",
"1  c #334C13",
"2  c #384D12",
"3  c #375412",
"4  c #3A5412",
"5  c #365D11",
"6  c #3D5B12",
"7  c #37531C",
"8  c #3B561A",
"9  c #3E5B19",
"0  c #366101",
"q  c #3D6303",
"w  c #3E6902",
"e  c #3E620A",
"r  c #3E680B",
"t  c #3E6213",
"y  c #415F05",
"u  c #43570F",
"i  c #415D0C",
"p  c #415611",
"a  c #435D14",
"s  c #41561D",
"d  c #425D1A",
"f  c #495E1C",
"g  c #416504",
"h  c #446B04",
"j  c #496D05",
"k  c #42640B",
"l  c #49650D",
"z  c #456A0B",
"x  c #4A6C0C",
"c  c #506E0C",
"v  c #467103",
"b  c #4B7304",
"n  c #4E7905",
"m  c #46710B",
"M  c #4C730B",
"N  c #4E7B0C",
"B  c #527606",
"V  c #537B06",
"C  c #5A7D06",
"Z  c #51750D",
"A  c #547A0B",
"S  c #597F0D",
"D  c #436313",
"F  c #4A6613",
"G  c #456A12",
"H  c #4B6C14",
"J  c #45621B",
"K  c #4A651C",
"L  c #466A19",
"P  c #4C6C1B",
"I  c #526D14",
"U  c #516D1C",
"Y  c #447011",
"T  c #4D7213",
"R  c #4E7816",
"E  c #4D721A",
"W  c #4E7A1B",
"Q  c #527414",
"!  c #597615",
"~  c #547A13",
"^  c #5A7D14",
"/  c #53741B",
"(  c #59751D",
")  c #557A1A",
"_  c #5A7C1C",
"`  c #607F17",
"'  c #445B22",
"]  c #466320",
"[  c #4B6422",
"{  c #4D6C23",
"}  c #516C23",
"|  c #516528",
" . c #526E29",
".. c #4F7224",
"X. c #557622",
"o. c #5A7524",
"O. c #567921",
"+. c #5C7C23",
"@. c #5B7529",
"#. c #5E7E2A",
"$. c #607E23",
"%. c #647E2B",
"&. c #607F33",
"*. c #568107",
"=. c #598303",
"-. c #5B8904",
";. c #56810B",
":. c #5B830D",
">. c #5E8A0F",
",. c #558316",
"<. c #5D8413",
"1. c #5F8813",
"2. c #56831E",
"3. c #5D831A",
"4. c #60870C",
"5. c #648C0B",
"6. c #6B940E",
"7. c #689808",
"8. c #628617",
"9. c #638B14",
"0. c #688B15",
"q. c #62851C",
"w. c #648A1C",
"e. c #698C1D",
"r. c #699314",
"t. c #6D9A15",
"y. c #66921A",
"u. c #6A931C",
"i. c #71951C",
"p. c #769A1E",
"a. c #5E8222",
"s. c #5F8228",
"d. c #628423",
"f. c #688626",
"g. c #668B22",
"h. c #6A8D23",
"j. c #63832B",
"k. c #69862A",
"l. c #658A28",
"z. c #6B8B2B",
"x. c #669023",
"c. c #6B9224",
"v. c #6E9229",
"b. c #739723",
"n. c #719A22",
"m. c #73952B",
"M. c #6A8D31",
"N. c #678A38",
/* pixels */
"3.J % > z M > w.i p :.z w M # k G H A g 4 J P @ K o a o @ . w k G o o h w z % f K o d.k e k x b h.n > + 4 D z . z ~ F h.",
"N = * q a.&.} f.h % _ u.- ' i.D x o ' z 0.k Z ; * = j k.& @.. ; T x.] d.P T S & . _ e D ; g z g - * q e.o f ~ h y./ o z ",
"0 g X./ Y ~ / & w q ; R D / z q k k + k 4 i = z x 9.e * v.= z f.q j N g y Z % M h.r = H h H ~ g l @ o q o H g T h H z q ",
"5 A [ F S D n o z n V T b X.A k k $.A > Q d h G % & h Z k h % K z L 9 = : J A v L q b H k 0 k X 8.d ~ q n ) > g k 5 0 ) ",
"w.H z y G = H H e./ h M 0 o = Q = F e 0 . G = ; I f.> / N = E D U ` x h b $ V ; - 3.& a U ^ = z : k Z q t ) x D q.* z > ",
"w h M e & / h e n - w.# q k i f + %.= N N N ; o o o % = 4.x k U o ; q 6 5 v k b ; 1.U - & _ + H g Q > Q j k + a - H T g ",
"q * P F @ o 8 h = Z 9 z / t.% f.p g H v k k y u q.a ; g r D = x s.) k ) @ k 0 9.E h = * q G B g k ^ ; g = * c l q g z q ",
"e u k 8 k 0 ) ;.Y % / h _ n > x ; 0 3 ; * B 3 x w :.~ Z g G e * :.h z g n.i H d.3.o Z } ; b +.* = N y y I = q q ; E L e ",
"m o & h.z k y ; h.& Q k l.g > o +.t T x d 3.H H y.% +.D d H H ) 4 o j f / = H f.Q ; / 6 ; 3.- ;.q h H / * ( + z ~ * h q ",
"m _ > e / g.9 % > 2.% _ & % q q.z b   ; = L % H T z z b h u & ~ ; j N k d g e = M Z g ; z # o Q :.+.S w % o l o o i T O.",
"T _ z k i ; h - _ w e & g % ( O.x n 6 f.e B 3.S g h Z h 0 d.) T L % 0 : g = k T T * e H w T Z b ^ + 8.k / L M / t z ) t ",
"- o i H - :.x / ^ q v G x 5 ; - z * 5 - - g J t.z q o Q ;._ B * - A j O w.> = ; Z q x d ~ X.Z w j L h J D q e ~ M * r :.",
"L q.j M h 7 T k ; U 1 e g w / x Y ; k I + & o & ) > <.o a k ; & y + i p i.X I ; ; 2 l.d ; ; % D H g 3.% % q v x z z e z ",
"% K > q : h _ % a y x K b.g.q k H a % ] ; a l D / > % _ H ; . ) = Q % G ) k j * k x T ; T w.+.f * h ; 3 o F t h.U - ..m ",
"E h y.g k > h h 4 % 0 A 8 i . q > ; > w c.:.r K 4.% h D > h % ~ * 0 M q > 9.P = 9 k w H K 0 g - H & g ^ o J h ) 4 > z ~ ",
"0 A h w g m.* % = _ H ~ ; % ) z 1.D % h H A v M - % w d f a./ - e M n k 5.Z + d. .= 4 n k M m #.U k q ;  .0 t . o ; m 6 ",
"/ % X.> > ; D ) F g k Q n e D z ) ^ +.> = & I k k l A ^ w.T = K o ~ = x ; P / = A % K g.> p q.} P > M j h.h % Z ; q z & ",
"z / m z g M v - Q 0 % J q L :.n 0 q % Z k o a ^ ; o L / x q k j.U w > a % & z h q K ! D % l ; ; b * m d o k.; ) n g F k ",
"q > z t Z ; = A 3.e A 6 0.F D z X Q q.e w V e h j u > F D e G G ; * D ; > ~ Q h Q ; + g * d ~ q Z M = z ! b D _ r 3 % - ",
"z g z h r 3.z o k H k u.m x ; k.- % 1.G q 9 M q x x h = e ^ & o <.H ; * V w / c./ J a.P 3.& o o x 3 :.z h = z e & * w.K ",
"e ; ^ - ^ . Q f O.& H H w Z / i 4 [ K ^ x ! > V 2 ) 0 h _ P + J e g ; f.m w - % o f.p J v.X Z g & % o.& Y h h x X.T w.> ",
"N.q h * i Q q d.K h w.N N 9.j & 1.3.k > b I T ~ K o.o 3.g Y G % w Z % Y e 6 l.Z z D x k j k % q b J A Q ; f.o 4 G v 1.z ",
"d o Q 8 z k H k = L P k 0 & r w e L = D q x.~ w = ; k M C * P A = 4 M D h Z % y 7 d V : v e.3.g k h.# q Z T z ; _ ^ P z ",
"<.. - x k h.e o l = V H = ~ . % i * P g T u z z ; g % q K = H H % > a q H b.F P T Q & *.- % K x t n t H w.3 q = o P g G ",
"- i n e e t w.< & h T k x T . h.o ' D q.o o 1 H - 0.H b L 6 % = $ q 1.q 1.* & e H j k a & F % x h t A z s.H q k 3.e D k ",
"h = e x.~ 3.~ i _ % h I k = E A X & z z o.- _ ! . ~ / T g o d.b 9.) * w.X.h > & y.Y { o ; n _ - w r t.P g x . ; % m v T ",
"* h.v Q X.z 0 q a k e.1 k i x w Q i w g Q % q / j * k ) q z > u.r.k h e S Y 0 n d _ ; J w.* r -.q S > q h | 6.* q ~ > g ",
"+.% > k A j g Q / q 9.H % Q <.H % s k / e r M x - h v % 1. .Q g q T x r k x D j Q 0 Z t.x z n u.G ^ H > k ; - g M q x ) ",
"w M ,.x 6 i f.e Q Y H h.h T w.k & d ! / ^ k z k > H D = k o - h *.% / % i j.o i V z q w.k z g P z * o F b e 6./ - j e Z ",
"z T r * H / ; M w > p d q.k x * = Z ; h x Q h k G ' b = _ > H > x q & ( 6 =.d x j e 3.p x w.b o 6 w.K 0.q j k o p % w g ",
"e P A > Q v q +.z g 0.Q x L q h = e.T = / c.q k = H z w :.z k ) Y % q.r.j M i.h * G ,.q _ e m x d ~ * g q g E ; T _ - z ",
"z a.h E k g * F - 3 P x q Z s.z D % k 4 P e T * 1.% 6 3.d q 0 % h K > > g * % ) e 6 = h z +.e M h M k * ) 9.x / 0 * + r ",
"v e.a.b g.> = U $.x ; _ g e 9 _ - & J 0 a & ^ H & Z % * I Q o + I d.P H - A 9 Q ; j.A { n.+ x z G k q j.1.4 & H M ~ ! x ",
"H d ; % a 2 P i 1 * A & [ j - P w - > h i J n H k O w z + H w @.k x r.h M r.P j x H 6 ; T G Z 3 _ > A E > D j +.. P N x ",
"+ - z 9 + m.= % _ g x } ; h x ~ j # ; g Q U U k H Q % x F = v z : g H A q 3.H ~ 0 P e e v d 4 G j h.o * Z % 0 : K * : 2.",
"_ w.H z a V h 0 * % t.g Z G o x + . b > _ H 6 T & o H - +.x e i ( ^ D b > g M Q u 3.k b % z +.e h / = F K l +.= N z n R ",
"I ; A j.o i ;.; u x x h - l h.G w.> T # % * g - h.i L q.; 4 M h q / H 9 = 3.} ; & & X f.L x X._ h.i u D % z g h.r = q s.",
"z = 1 k p O.D > F g.T x 4 & z h % Z : h x h x 4.P j x q t T >.: h k P g , h.=.1 > H 8.o y r ;.G 3 0.w N > q z g x k n / ",
"* 3.n 0 H k A n o k H & j J j 0 x a H Q ; z & I b * 3.z * z A h g & G * S k e k A = z / & g - b ; ) h = J k w / k / ( k ",
"D % z.) } a 6 q % d z * i G k Q F g _ d * m.J o N % i y D - ; E * 3.v e 3 +.-.> P ~ ~ ; p + z - > h ^ D k q ~ x P ~ q l.",
"o . p T q B & k j g ;.k Q ; q.H 4 & a ; b j ) . w.4 Q ; > 6 % 9.P - a.% / . h.K { # Q = H ; > h n H #.; h T = O.) e q D ",
"^ k s.k z 8.5 - f.% Q ; <.w z J :.t ) ) 0 q <.b = k 4 x b - A = b ^ ; d.z T % p T v 7 x q b 9.F I F O 0 Z . w z P T ,.Y ",
"J o l X.% z H k * D h y ; & o ; q.h a.[ i :.k * h u.f.h E ; k k z : M > , * T y.- w V % n t & t Q Q M z H . H A ) 0 z Q ",
"R & : +./ +.3.* s.k ) D H ; ) ; Q T o P o d x n E * o h T M 4 ; k 0 z 3.V g H x > / { J 3.. D h q w D k & ' i.; b . g.6 ",
"0 h 8.> = ) > - *.> ; a :.x b +.= T 6 o.H z u.; x ^ a T w h w.^ t v.F x = a D H _ %.i @ K d j = h M ~ q # & b A E q.= ) ",
"h v :.h x G k + i z M > k * / J g = > +.= b q.G y.V & k h x M r x g.% @.) A k * h g e h <.n b j 5 i.h.z X.N * z & & k ) ",
"q ) ~ H = +.0 _ z v g % k h % y.Q q v > > g . +.: q b q i d.o k N b g o T q z q.w z % H k G = ; k H k x ; q x z k ; ~ ; ",
"3._ = & - H g + Q ) > m.h.T . s.8 x k w.o o e = e _ O.. ; u 4 G a g * Q Y V # j.h P : q P M M G j h Z % _ : ( _ q 0 . #.",
"G z 5.d.V V E x s.% G z d H x / & 8 g k g.% ! _ 1.M j k h ; & K ; i r 5.N _ 6 - M.~ Q X % ) / t e q r.{ q k > J * r ;.Q ",
"k 9.b q 4 H q 7 F h u.+ k & k > H ; G h X.= k x L * 6 O.h w > 3.9.H M q q.n = / 3 ~ - P 2.= h 9.* A g k h K w.= R e q q ",
"o q n t *.k n y.- t B * h k  .; o ; * +.G > 6.k x L z ! ^ + Q q z a.q D & k % j.* * h - / e = h * ~ & d q k k * z w.H q.",
"z ) O.3.8 k $.d Z M p 3.H x g.g - p ! Q A z e D D +.H > D @ % H :.% H & J z.; q b k q q.i g k P z * o H b x y.Q t j D h ",
"j H g = > :.e j g = - 9 1.x T q w x > z l N h e ; g Z = x = Y a G 0 4 Q k _ G z z r w.g J 7.T & k _ J 8.q x d . 6 = q i ",
"i k M * T v = +.Q > 3.G v r 0 w 0 r.z ; L h.* j x J x g w.j k +.b % d.x.H m c.h q ; Q q ~ J v j g Y = z q g H % x H 3 k ",
"! ( j / k k - H > ; d.h w l / M d ; 9 6 F k z % 0.& % _ % * q & = U = H w > % _ > e z h E Q > v g H w 4 ) g.j / = q H * ",
"; = 8.T e.> = F @.z 8 ^ > / o / = ; i q a % ,.) k H * = #._ % o Q k.& ~ : S p x + z.T 3.) + T z ; T - j.g ; ; E x x ) = ",
"5 z * ; k D A U > 0 4.P *.q 9.Q 0 3 J g g J H z q # q D 3 x > _ H b w.q x y.6 h z q % m T i Z - ~ P ~ q _ M w s.o = M t ",
"s.; 0 H D D h e _ k $.H i - _ k q J i * g ~ * Z Q 8.q Q k w h h.T <._ d.h g = k = X.> e - j > E w 6 j q A ^ h 3.G M L . ",
": x.b M L 3.E c.g q ; ; z g x 0 = Z p & o A T w . ; ^ P q.D G o / A - L G e % Q x 3.J i J k x k x ,.6 ) w.n u.* j = ~ S ",
"q = y.a.k :.J Q z z ! i +.N x w = M = = % :.- G N H z b q k X.3 h ; ^ x q z ! C * q Z i S Q Q q Z e i = z = z x : w.L > "
};
